# This file uses centimeters as units for non-parametric coordinates.

v -0.355217 -0.371218 0.355216
v 0.355216 0.371218 0.355216
v -0.355217 0.371218 -0.355216
v 0.215732 -0.371218 0.355216
v -0.248652 0.371218 0.355216
v 0.248651 0.371218 -0.355216
v -0.248652 -0.371218 -0.355216
v 0.248651 -0.371218 -0.355216
v -0.355217 0.259853 0.355216
v 0.355217 -0.170083 0.355216
v -0.355217 0.371218 0.248651
v 0.355216 0.371218 -0.248651
v -0.355217 -0.259853 -0.355216
v 0.355216 0.259853 -0.355216
v 0.355216 -0.259853 -0.355216
v -0.355217 -0.371218 -0.248651
v 0.355216 -0.371218 -0.248651
v 0.355216 -0.371218 0.167061
v 0.355216 0.259853 0.355216
v -0.355217 0.259853 -0.355216
v -0.355217 -0.259853 0.355216
vt 0.385208 0.844205
vt 0.385207 0.686583
vt 0.408851 0.710499
vt 0.408852 0.843933
vt 0.274872 0.844206
vt 0.274872 0.686584
vt 0.408851 0.686583
vt 0.251229 0.820290
vt 0.251229 0.686856
vt 0.251229 0.844206
vt 0.681001 0.686256
vt 0.724033 0.728324
vt 0.724034 0.821272
vt 0.700207 0.845098
vt 0.724033 0.686255
vt 0.724034 0.845098
vt 0.589018 0.845098
vt 0.589017 0.686256
vt 0.565191 0.820740
vt 0.565191 0.686788
vt 0.565191 0.845098
vt 0.432302 0.687320
vt 0.541741 0.843660
vt 0.227778 0.843469
vt 0.118340 0.843469
vt 0.094889 0.820018
vt 0.094889 0.728535
vt 0.125584 0.687129
vt 0.408850 0.554432
vt 0.565190 0.573334
vt 0.565190 0.663869
vt 0.408850 0.663870
vt 0.408849 0.530981
vt 0.534494 0.530980
vt 0.565192 0.867111
vt 0.408852 0.867111
vt 0.565192 0.976549
vt 0.408852 0.976549
vt 0.541741 1.000000
vt 0.432303 1.000000
vn 0.701777 -0.486675 0.520247
vn 0.701777 -0.486674 0.520247
vn 0.701777 -0.486674 0.520247
vn 0.585643 0.560397 -0.585643
vn 0.585643 0.560397 -0.585643
vn 0.585643 0.560397 -0.585643
vn -0.585643 0.560397 0.585643
vn -0.585643 0.560397 0.585643
vn -0.585643 0.560397 0.585643
vn -0.000000 0.000000 1.000000
vn -0.000000 0.000000 1.000000
vn -0.000000 0.000000 1.000000
vn -0.000000 0.000000 1.000000
vn -0.585643 -0.560397 -0.585643
vn -0.585643 -0.560397 -0.585643
vn -0.585643 -0.560397 -0.585643
vn 0.000000 1.000000 0.000000
vn 0.000000 1.000000 0.000000
vn 0.000000 1.000000 0.000000
vn 0.000000 1.000000 0.000000
vn 0.585643 -0.560397 -0.585643
vn 0.585643 -0.560397 -0.585643
vn 0.585643 -0.560397 -0.585643
vn -1.000000 0.000000 0.000000
vn -1.000000 0.000000 0.000000
vn -1.000000 0.000000 0.000000
vn -1.000000 0.000000 0.000000
vn 1.000000 0.000001 -0.000001
vn 1.000000 -0.000003 -0.000001
vn 1.000000 -0.000003 -0.000001
vn 1.000000 0.000000 -0.000001
vn 0.000000 -1.000000 0.000000
vn 0.000000 -1.000000 0.000000
vn -0.000000 -1.000000 0.000000
vn -0.000000 -1.000000 0.000000
vn 0.000000 0.000000 -1.000000
vn 0.000000 0.000000 -1.000000
vn 0.000000 0.000000 -1.000000
vn 0.000000 0.000000 -1.000000
vn 1.000000 0.000001 -0.000001
vn 1.000000 0.000001 -0.000001
vn 1.000000 0.000001 -0.000000
vn 1.000000 0.000001 -0.000000
vn 0.000000 0.000000 1.000000
vn 0.000000 0.000000 1.000000
vn 0.000000 0.000000 -1.000000
vn 0.000000 0.000000 -1.000000
vn -1.000000 0.000000 -0.000000
vn -1.000000 0.000001 -0.000000
vn 0.000000 0.000000 -1.000000
vn 0.000000 0.000000 -1.000000
vn -1.000000 0.000004 -0.000001
vn -1.000000 0.000004 -0.000001
vn -0.000000 0.000001 1.000000
vn -0.000000 0.000001 1.000000
vn 0.000000 -1.000000 0.000000
vn 0.000000 -1.000000 0.000000
vn 0.000000 -1.000000 -0.000000
vn 0.000000 1.000000 0.000000
vn 0.000000 1.000000 0.000000
s off
f 18/12/1 10/11/2 4/15/3
f 12/19/4 14/17/5 6/21/6
f 11/3/7 9/2/8 5/7/9
s 1
f 21/29/10 10/30/11 19/31/12 9/32/13
s off
f 16/8/14 13/5/15 7/10/16
s 2
f 11/3/17 5/22/18 12/19/19 6/23/20
s off
f 15/14/21 17/13/22 8/16/23
s 3
f 20/1/24 9/2/25 11/3/26 3/4/27
s 4
f 10/11/28 18/12/29 17/13/30 15/14/31
s 5
f 18/27/32 7/24/33 8/25/34 17/26/35
s 6
f 3/4/36 6/23/37 14/35/38 20/36/39
s 4
f 19/18/40 14/17/41 12/19/42 2/20/43
s 1
f 9/32/13 19/31/12 2/20/44 5/22/45
s 6
f 20/36/39 14/35/38 15/37/46 13/38/47
s 3
f 13/5/48 21/6/49 9/2/25 20/1/24
s 6
f 13/38/47 15/37/46 8/39/50 7/40/51
s 3
f 13/5/48 16/8/52 1/9/53 21/6/49
s 1
f 1/33/54 4/34/55 10/30/11 21/29/10
s 4
f 10/11/28 15/14/31 14/17/41 19/18/40
s 5
f 16/8/56 4/28/57 1/9/58
f 16/8/56 7/24/33 18/27/32 4/28/57
s 2
f 12/19/19 5/22/18 2/20/59
f 11/3/17 6/23/20 3/4/60
