# This file uses centimeters as units for non-parametric coordinates.

v -0.354794 1.484874 -0.357650
v -0.354794 2.227311 0.352783
v 0.355640 2.227311 -0.357649
v -0.354794 1.484874 0.213299
v -0.354794 2.227311 -0.251084
v 0.355640 2.227311 0.246218
v 0.355640 1.484874 -0.251084
v 0.355640 1.484874 0.246218
v -0.354794 2.115945 -0.357649
v -0.354794 1.686010 0.352784
v -0.248228 2.227311 -0.357649
v 0.249075 2.227311 0.352783
v 0.355640 1.596239 -0.357649
v 0.355640 2.115945 0.352783
v 0.355640 1.596239 0.352783
v 0.249075 1.484874 -0.357649
v 0.249075 1.484874 0.352783
v -0.166637 1.484874 0.352783
v -0.354794 2.115945 0.352783
v 0.355640 2.115945 -0.357649
v -0.354794 1.596239 -0.357649
v 0.354794 1.484874 -0.352784
v 0.354794 0.742437 0.357649
v -0.355640 0.742437 -0.352783
v 0.354794 1.484874 0.218165
v 0.354794 0.742437 -0.246218
v -0.355640 0.742437 0.251084
v -0.355640 1.484874 -0.246218
v -0.355640 1.484874 0.251084
v 0.354794 0.853802 -0.352783
v 0.354794 0.961247 0.357650
v 0.248228 0.742437 -0.352783
v -0.249075 0.742437 0.357649
v -0.355640 1.020514 -0.352783
v -0.355640 0.853802 0.357649
v -0.355640 1.373508 0.357649
v -0.249075 1.484874 -0.352783
v -0.249075 1.484874 0.357649
v 0.166637 1.484874 0.357649
v 0.354794 0.853802 0.357649
v -0.355640 0.853802 -0.352783
v 0.354794 1.373508 -0.352783
v -0.354794 0.000000 0.352783
v 0.355640 0.742437 0.352783
v -0.354794 0.742437 -0.357649
v 0.216156 0.000000 0.352783
v -0.248228 0.742437 0.352783
v 0.249075 0.742437 -0.357649
v -0.248228 0.000000 -0.357649
v 0.249075 0.000000 -0.357649
v -0.354794 0.631071 0.352783
v 0.355640 0.201136 0.352783
v -0.354794 0.742437 0.246218
v 0.355640 0.742437 -0.251084
v -0.354794 0.111366 -0.357649
v 0.355640 0.631071 -0.357649
v 0.355640 0.111366 -0.357649
v -0.354794 0.000000 -0.251084
v 0.355640 0.000000 -0.251084
v 0.355640 0.000000 0.164629
v 0.355640 0.631071 0.352783
v -0.354794 0.631071 -0.357649
v -0.354794 0.111366 0.352783
v 0.355640 2.969748 0.352783
v -0.354794 2.227311 0.352783
v 0.355640 2.227311 -0.357649
v -0.215309 2.969748 0.352783
v 0.249075 2.227311 0.352783
v -0.248228 2.227311 -0.357649
v 0.249075 2.969748 -0.357649
v -0.248228 2.969748 -0.357649
v 0.355640 2.338676 0.352783
v -0.354794 2.768612 0.352783
v 0.355640 2.227311 0.246218
v -0.354794 2.227311 -0.251084
v 0.355640 2.858382 -0.357649
v -0.354794 2.338676 -0.357649
v -0.354794 2.858382 -0.357649
v 0.355640 2.969748 -0.251084
v -0.354794 2.969748 -0.251084
v -0.354794 2.969748 0.164629
v -0.354794 2.338676 0.352783
v 0.355640 2.338676 -0.357649
v 0.355640 2.858382 0.352783
vt 0.385208 0.844205
vt 0.385207 0.686583
vt 0.408851 0.710499
vt 0.408852 0.843933
vt 0.274872 0.844206
vt 0.274872 0.686584
vt 0.408851 0.686583
vt 0.251229 0.820290
vt 0.251229 0.686856
vt 0.251229 0.844206
vt 0.681001 0.686256
vt 0.724033 0.728324
vt 0.724034 0.821272
vt 0.700207 0.845098
vt 0.724033 0.686255
vt 0.724034 0.845098
vt 0.589018 0.845098
vt 0.589017 0.686256
vt 0.565191 0.820740
vt 0.565191 0.686788
vt 0.565191 0.845098
vt 0.432302 0.687320
vt 0.541741 0.843660
vt 0.227778 0.843469
vt 0.118340 0.843469
vt 0.094889 0.820018
vt 0.094889 0.728535
vt 0.125584 0.687129
vt 0.408850 0.554432
vt 0.565190 0.573334
vt 0.565190 0.663869
vt 0.408850 0.663870
vt 0.408849 0.530981
vt 0.534494 0.530980
vt 0.565192 0.867111
vt 0.408852 0.867111
vt 0.565192 0.976549
vt 0.408852 0.976549
vt 0.541741 1.000000
vt 0.432303 1.000000
vt 0.724033 0.728324
vt 0.681001 0.686256
vt 0.724033 0.686255
vt 0.565191 0.820740
vt 0.589018 0.845098
vt 0.565191 0.845098
vt 0.408851 0.710499
vt 0.385207 0.686583
vt 0.408851 0.686583
vt 0.408850 0.554432
vt 0.565190 0.573334
vt 0.565190 0.663869
vt 0.408850 0.663870
vt 0.251229 0.820290
vt 0.274872 0.844206
vt 0.251229 0.844206
vt 0.432302 0.687320
vt 0.541741 0.843660
vt 0.700207 0.845098
vt 0.724034 0.821272
vt 0.724034 0.845098
vt 0.385208 0.844205
vt 0.408852 0.843933
vt 0.094889 0.728535
vt 0.227778 0.843469
vt 0.118340 0.843469
vt 0.094889 0.820018
vt 0.565192 0.867111
vt 0.408852 0.867111
vt 0.589017 0.686256
vt 0.565191 0.686788
vt 0.565192 0.976549
vt 0.408852 0.976549
vt 0.274872 0.686584
vt 0.541741 1.000000
vt 0.432303 1.000000
vt 0.251229 0.686856
vt 0.408849 0.530981
vt 0.534494 0.530980
vt 0.125584 0.687129
vt 0.724033 0.728324
vt 0.681001 0.686256
vt 0.724033 0.686255
vt 0.565191 0.820740
vt 0.589018 0.845098
vt 0.565191 0.845098
vt 0.408851 0.710499
vt 0.385207 0.686583
vt 0.408851 0.686583
vt 0.408850 0.554432
vt 0.565190 0.573334
vt 0.565190 0.663869
vt 0.408850 0.663870
vt 0.251229 0.820290
vt 0.274872 0.844206
vt 0.251229 0.844206
vt 0.432302 0.687320
vt 0.541741 0.843660
vt 0.700207 0.845098
vt 0.724034 0.821272
vt 0.724034 0.845098
vt 0.385208 0.844205
vt 0.408852 0.843933
vt 0.094889 0.728535
vt 0.227778 0.843469
vt 0.118340 0.843469
vt 0.094889 0.820018
vt 0.565192 0.867111
vt 0.408852 0.867111
vt 0.589017 0.686256
vt 0.565191 0.686788
vt 0.565192 0.976549
vt 0.408852 0.976549
vt 0.274872 0.686584
vt 0.541741 1.000000
vt 0.432303 1.000000
vt 0.251229 0.686856
vt 0.408849 0.530981
vt 0.534494 0.530980
vt 0.125584 0.687129
vt 0.724033 0.728324
vt 0.681001 0.686256
vt 0.724033 0.686255
vt 0.565191 0.820740
vt 0.589018 0.845098
vt 0.565191 0.845098
vt 0.408851 0.710499
vt 0.385207 0.686583
vt 0.408851 0.686583
vt 0.408850 0.554432
vt 0.565190 0.573334
vt 0.565190 0.663869
vt 0.408850 0.663870
vt 0.251229 0.820290
vt 0.274872 0.844206
vt 0.251229 0.844206
vt 0.432302 0.687320
vt 0.541741 0.843660
vt 0.700207 0.845098
vt 0.724034 0.821272
vt 0.724034 0.845098
vt 0.385208 0.844205
vt 0.408852 0.843933
vt 0.094889 0.728535
vt 0.227778 0.843469
vt 0.118340 0.843469
vt 0.094889 0.820018
vt 0.565192 0.867111
vt 0.408852 0.867111
vt 0.589017 0.686256
vt 0.565191 0.686788
vt 0.565192 0.976549
vt 0.408852 0.976549
vt 0.274872 0.686584
vt 0.541741 1.000000
vt 0.432303 1.000000
vt 0.251229 0.686856
vt 0.408849 0.530981
vt 0.534494 0.530980
vt 0.125584 0.687129
vn -0.520244 -0.486676 0.701779
vn -0.520244 -0.486676 0.701779
vn -0.520244 -0.486676 0.701779
vn 0.585642 0.560399 0.585643
vn 0.585642 0.560399 0.585643
vn 0.585642 0.560399 0.585643
vn -0.585642 0.560399 -0.585642
vn -0.585642 0.560399 -0.585642
vn -0.585642 0.560399 -0.585642
vn -1.000000 0.000000 0.000000
vn -1.000000 0.000000 0.000000
vn -1.000000 0.000000 0.000000
vn -1.000000 0.000000 0.000000
vn 0.585640 -0.560398 -0.585644
vn 0.585640 -0.560398 -0.585644
vn 0.585640 -0.560398 -0.585644
vn 0.000000 1.000000 0.000000
vn 0.000000 1.000000 0.000000
vn 0.000000 1.000000 0.000000
vn 0.000000 1.000000 0.000000
vn 0.585640 -0.560398 0.585645
vn 0.585640 -0.560398 0.585645
vn 0.585640 -0.560398 0.585645
vn 0.000000 0.000000 -1.000000
vn 0.000000 0.000000 -1.000000
vn 0.000000 0.000000 -1.000000
vn 0.000000 0.000000 -1.000000
vn 0.000001 0.000001 1.000000
vn 0.000001 -0.000004 1.000000
vn 0.000001 -0.000004 1.000000
vn 0.000001 0.000000 1.000000
vn 0.000000 -1.000000 -0.000000
vn 0.000000 -1.000000 -0.000000
vn 0.000000 -1.000000 0.000000
vn 0.000000 -1.000000 0.000000
vn 1.000000 0.000000 0.000000
vn 1.000000 0.000000 0.000000
vn 1.000000 0.000000 0.000000
vn 1.000000 0.000000 0.000000
vn 0.000001 0.000001 1.000000
vn 0.000001 0.000001 1.000000
vn 0.000000 0.000001 1.000000
vn 0.000000 0.000001 1.000000
vn -1.000000 -0.000000 0.000000
vn -1.000000 -0.000000 0.000000
vn 1.000000 0.000000 0.000000
vn 1.000000 0.000000 0.000000
vn 0.000000 0.000000 -1.000000
vn 0.000000 0.000001 -1.000000
vn 1.000000 0.000000 0.000000
vn 1.000000 0.000000 0.000000
vn 0.000001 0.000003 -1.000000
vn 0.000001 0.000003 -1.000000
vn -1.000000 0.000000 0.000000
vn -1.000000 0.000000 0.000000
vn 0.000000 -1.000000 -0.000000
vn 0.000000 -1.000000 -0.000000
vn 0.000000 -1.000000 0.000000
vn 0.000000 1.000000 0.000000
vn 0.000000 1.000000 0.000000
vn 0.582345 0.209257 0.785549
vn 0.582345 0.209257 0.785549
vn 0.582345 0.209257 0.785549
vn -0.585641 -0.560398 0.585644
vn -0.585641 -0.560399 0.585644
vn -0.585641 -0.560398 0.585644
vn 0.585641 -0.560398 -0.585644
vn 0.585641 -0.560398 -0.585644
vn 0.585641 -0.560398 -0.585644
vn 1.000000 0.000000 0.000000
vn 1.000000 0.000000 0.000000
vn 1.000000 0.000000 0.000000
vn 1.000000 0.000000 0.000000
vn -0.697975 0.160178 -0.697979
vn -0.697975 0.160178 -0.697979
vn -0.697975 0.160178 -0.697979
vn 0.000000 -1.000000 0.000000
vn 0.000000 -1.000000 0.000000
vn 0.000000 -1.000000 0.000000
vn 0.000000 -1.000000 0.000000
vn -0.585641 0.560399 0.585644
vn -0.585641 0.560398 0.585644
vn -0.585641 0.560398 0.585644
vn 0.000000 0.000000 -1.000000
vn 0.000000 0.000000 -1.000000
vn 0.000000 0.000000 -1.000000
vn 0.000000 0.000000 -1.000000
vn -0.000001 -0.000001 1.000000
vn -0.000000 0.000001 1.000000
vn -0.000000 0.000001 1.000000
vn -0.000001 0.000000 1.000000
vn 0.000000 1.000000 0.000000
vn 0.000000 1.000000 0.000000
vn 0.000000 1.000000 0.000000
vn 0.000000 1.000000 0.000000
vn -1.000000 -0.000000 0.000000
vn -1.000000 -0.000000 0.000000
vn -1.000000 -0.000000 0.000000
vn -1.000000 -0.000000 0.000000
vn -0.000001 -0.000001 1.000000
vn -0.000001 -0.000001 1.000000
vn -0.000000 -0.000001 1.000000
vn -0.000000 -0.000001 1.000000
vn 1.000000 -0.000000 0.000000
vn 1.000000 -0.000000 0.000000
vn -1.000000 0.000000 0.000000
vn -1.000000 0.000000 0.000000
vn -0.000000 -0.000000 -1.000000
vn -0.000000 -0.000001 -1.000000
vn -1.000000 0.000000 0.000000
vn -1.000000 0.000000 0.000000
vn -0.000000 -0.000001 -1.000000
vn -0.000000 -0.000001 -1.000000
vn 1.000000 -0.000000 0.000000
vn 1.000000 -0.000000 0.000000
vn 0.000000 1.000000 0.000000
vn 0.000000 1.000000 0.000000
vn 0.000000 1.000000 0.000000
vn 0.000000 -1.000000 0.000000
vn 0.000000 -1.000000 0.000000
vn 0.701778 -0.486672 0.520248
vn 0.701778 -0.486672 0.520248
vn 0.701778 -0.486672 0.520248
vn 0.585641 0.560398 -0.585644
vn 0.585641 0.560398 -0.585644
vn 0.585641 0.560399 -0.585644
vn -0.585641 0.560399 0.585643
vn -0.585641 0.560399 0.585643
vn -0.585641 0.560399 0.585643
vn 0.000000 0.000000 1.000000
vn 0.000000 0.000000 1.000000
vn 0.000000 0.000000 1.000000
vn 0.000000 0.000000 1.000000
vn -0.585641 -0.560398 -0.585644
vn -0.585641 -0.560398 -0.585644
vn -0.585641 -0.560398 -0.585644
vn 0.000000 1.000000 -0.000000
vn 0.000000 1.000000 -0.000000
vn 0.000000 1.000000 -0.000000
vn 0.000000 1.000000 -0.000000
vn 0.585641 -0.560398 -0.585644
vn 0.585641 -0.560398 -0.585644
vn 0.585641 -0.560398 -0.585644
vn -1.000000 0.000000 0.000000
vn -1.000000 0.000000 0.000000
vn -1.000000 0.000000 0.000000
vn -1.000000 0.000000 0.000000
vn 1.000000 0.000000 0.000000
vn 1.000000 0.000000 0.000000
vn 1.000000 0.000000 0.000000
vn 1.000000 0.000000 0.000000
vn 0.000000 -1.000000 0.000000
vn 0.000000 -1.000000 0.000000
vn 0.000000 -1.000000 0.000000
vn 0.000000 -1.000000 0.000000
vn 0.000000 0.000000 -1.000000
vn 0.000000 0.000000 -1.000000
vn 0.000000 0.000000 -1.000000
vn 0.000000 0.000000 -1.000000
vn 1.000000 0.000000 0.000000
vn 1.000000 0.000000 0.000000
vn 1.000000 0.000000 0.000000
vn 1.000000 0.000000 0.000000
vn 0.000000 0.000000 1.000000
vn 0.000000 0.000000 1.000000
vn 0.000000 0.000000 -1.000000
vn 0.000000 0.000000 -1.000000
vn -1.000000 0.000000 0.000000
vn -1.000000 0.000000 0.000000
vn 0.000000 0.000000 -1.000000
vn 0.000000 0.000000 -1.000000
vn -1.000000 0.000000 0.000000
vn -1.000000 0.000000 0.000000
vn 0.000000 0.000000 1.000000
vn 0.000000 0.000000 1.000000
vn 0.000000 -1.000000 0.000000
vn 0.000000 -1.000000 0.000000
vn 0.000000 -1.000000 0.000000
vn 0.000000 1.000000 0.000000
vn 0.000000 1.000000 0.000000
vn -0.701778 0.486672 0.520248
vn -0.701778 0.486672 0.520248
vn -0.701778 0.486672 0.520248
vn -0.585641 -0.560398 -0.585643
vn -0.585641 -0.560398 -0.585643
vn -0.585641 -0.560398 -0.585643
vn 0.585641 -0.560399 0.585643
vn 0.585641 -0.560399 0.585643
vn 0.585641 -0.560399 0.585643
vn 0.000000 0.000000 1.000000
vn 0.000000 0.000000 1.000000
vn 0.000000 0.000000 1.000000
vn 0.000000 0.000000 1.000000
vn 0.585641 0.560399 -0.585643
vn 0.585641 0.560399 -0.585643
vn 0.585641 0.560399 -0.585643
vn 0.000000 -1.000000 0.000000
vn 0.000000 -1.000000 0.000000
vn 0.000000 -1.000000 0.000000
vn 0.000000 -1.000000 0.000000
vn -0.585641 0.560398 -0.585643
vn -0.585641 0.560398 -0.585643
vn -0.585641 0.560398 -0.585643
vn 1.000000 -0.000000 0.000000
vn 1.000000 -0.000000 0.000000
vn 1.000000 -0.000000 0.000000
vn 1.000000 -0.000000 0.000000
vn -1.000000 0.000000 0.000000
vn -1.000000 0.000000 0.000000
vn -1.000000 0.000000 0.000000
vn -1.000000 0.000000 0.000000
vn 0.000000 1.000000 0.000000
vn 0.000000 1.000000 0.000000
vn 0.000000 1.000000 -0.000001
vn 0.000000 1.000000 -0.000001
vn 0.000000 0.000000 -1.000000
vn 0.000000 0.000000 -1.000000
vn 0.000000 0.000000 -1.000000
vn 0.000000 0.000000 -1.000000
vn -1.000000 0.000000 0.000000
vn -1.000000 0.000000 0.000000
vn -1.000000 0.000000 0.000000
vn -1.000000 0.000000 0.000000
vn 0.000000 0.000000 1.000000
vn 0.000000 0.000000 1.000000
vn 0.000000 0.000000 -1.000000
vn 0.000000 0.000000 -1.000000
vn 1.000000 0.000000 0.000000
vn 1.000000 0.000000 0.000000
vn 0.000000 0.000000 -1.000000
vn 0.000000 0.000000 -1.000000
vn 1.000000 0.000000 0.000000
vn 1.000000 0.000000 0.000000
vn 0.000000 0.000000 1.000000
vn 0.000000 0.000000 1.000000
vn 0.000000 1.000000 0.000001
vn 0.000000 1.000000 0.000000
vn 0.000000 1.000000 0.000000
vn 0.000000 -1.000000 0.000000
vn 0.000000 -1.000000 0.000000
s off
f 18/12/1 10/11/2 4/15/3
f 12/19/4 14/17/5 6/21/6
f 11/3/7 9/2/8 5/7/9
s 1
f 21/29/10 10/30/11 19/31/12 9/32/13
s off
f 16/8/14 13/5/15 7/10/16
s 2
f 11/3/17 5/22/18 12/19/19 6/23/20
s off
f 15/14/21 17/13/22 8/16/23
s 3
f 20/1/24 9/2/25 11/3/26 3/4/27
s 4
f 10/11/28 18/12/29 17/13/30 15/14/31
s 5
f 18/27/32 7/24/33 8/25/34 17/26/35
s 6
f 3/4/36 6/23/37 14/35/38 20/36/39
s 4
f 19/18/40 14/17/41 12/19/42 2/20/43
s 1
f 9/32/13 19/31/12 2/20/44 5/22/45
s 6
f 20/36/39 14/35/38 15/37/46 13/38/47
s 3
f 13/5/48 21/6/49 9/2/25 20/1/24
s 6
f 13/38/47 15/37/46 8/39/50 7/40/51
s 3
f 13/5/48 16/8/52 1/9/53 21/6/49
s 1
f 1/33/54 4/34/55 10/30/11 21/29/10
s 4
f 10/11/28 15/14/31 14/17/41 19/18/40
s 5
f 16/8/56 4/28/57 1/9/58
f 16/8/56 7/24/33 18/27/32 4/28/57
s 2
f 12/19/19 5/22/18 2/20/59
f 11/3/17 6/23/20 3/4/60
s off
f 39/41/61 31/42/62 25/43/63
f 33/44/64 35/45/65 27/46/66
f 32/47/67 30/48/68 26/49/69
s 7
f 42/50/70 31/51/71 40/52/72 30/53/73
s off
f 37/54/74 34/55/75 28/56/76
s 8
f 32/47/77 26/57/78 33/44/79 27/58/80
s off
f 36/59/81 38/60/82 29/61/83
s 9
f 41/62/84 30/48/85 32/47/86 24/63/87
s 10
f 31/42/88 39/41/89 38/60/90 36/59/91
s 11
f 39/64/92 28/65/93 29/66/94 38/67/95
s 12
f 24/63/96 27/58/97 35/68/98 41/69/99
s 10
f 40/70/100 35/45/101 33/44/102 23/71/103
s 7
f 30/53/73 40/52/72 23/71/104 26/57/105
s 12
f 41/69/99 35/68/98 36/72/106 34/73/107
s 9
f 34/55/108 42/74/109 30/48/85 41/62/84
s 12
f 34/73/107 36/72/106 29/75/110 28/76/111
s 9
f 34/55/108 37/54/112 22/77/113 42/74/109
s 7
f 22/78/114 25/79/115 31/51/71 42/50/70
s 10
f 31/42/88 36/59/91 35/45/101 40/70/100
s 11
f 37/54/116 25/80/117 22/77/118
f 37/54/116 28/65/93 39/64/92 25/80/117
s 8
f 33/44/79 26/57/78 23/71/119
f 32/47/77 27/58/80 24/63/120
s off
f 60/81/121 52/82/122 46/83/123
f 54/84/124 56/85/125 48/86/126
f 53/87/127 51/88/128 47/89/129
s 13
f 63/90/130 52/91/131 61/92/132 51/93/133
s off
f 58/94/134 55/95/135 49/96/136
s 14
f 53/87/137 47/97/138 54/84/139 48/98/140
s off
f 57/99/141 59/100/142 50/101/143
s 15
f 62/102/144 51/88/145 53/87/146 45/103/147
s 16
f 52/82/148 60/81/149 59/100/150 57/99/151
s 17
f 60/104/152 49/105/153 50/106/154 59/107/155
s 18
f 45/103/156 48/98/157 56/108/158 62/109/159
s 16
f 61/110/160 56/85/161 54/84/162 44/111/163
s 13
f 51/93/133 61/92/132 44/111/164 47/97/165
s 18
f 62/109/159 56/108/158 57/112/166 55/113/167
s 15
f 55/95/168 63/114/169 51/88/145 62/102/144
s 18
f 55/113/167 57/112/166 50/115/170 49/116/171
s 15
f 55/95/168 58/94/172 43/117/173 63/114/169
s 13
f 43/118/174 46/119/175 52/91/131 63/90/130
s 16
f 52/82/148 57/99/151 56/85/161 61/110/160
s 17
f 58/94/176 46/120/177 43/117/178
f 58/94/176 49/105/153 60/104/152 46/120/177
s 14
f 54/84/139 47/97/138 44/111/179
f 53/87/137 48/98/140 45/103/180
s off
f 81/121/181 73/122/182 67/123/183
f 75/124/184 77/125/185 69/126/186
f 74/127/187 72/128/188 68/129/189
s 19
f 84/130/190 73/131/191 82/132/192 72/133/193
s off
f 79/134/194 76/135/195 70/136/196
s 20
f 74/127/197 68/137/198 75/124/199 69/138/200
s off
f 78/139/201 80/140/202 71/141/203
s 21
f 83/142/204 72/128/205 74/127/206 66/143/207
s 22
f 73/122/208 81/121/209 80/140/210 78/139/211
s 23
f 81/144/212 70/145/213 71/146/214 80/147/215
s 24
f 66/143/216 69/138/217 77/148/218 83/149/219
s 22
f 82/150/220 77/125/221 75/124/222 65/151/223
s 19
f 72/133/193 82/132/192 65/151/224 68/137/225
s 24
f 83/149/219 77/148/218 78/152/226 76/153/227
s 21
f 76/135/228 84/154/229 72/128/205 83/142/204
s 24
f 76/153/227 78/152/226 71/155/230 70/156/231
s 21
f 76/135/228 79/134/232 64/157/233 84/154/229
s 19
f 64/158/234 67/159/235 73/131/191 84/130/190
s 22
f 73/122/208 78/139/211 77/125/221 82/150/220
s 23
f 79/134/236 67/160/237 64/157/238
f 79/134/236 70/145/213 81/144/212 67/160/237
s 20
f 75/124/199 68/137/198 65/151/239
f 74/127/197 69/138/200 66/143/240
