# This file uses centimeters as units for non-parametric coordinates.

v 0.363556 1.500002 0.127882
v 0.352753 1.500002 0.120034
v 0.339401 1.500002 0.120034
v 0.328599 1.500002 0.127882
v 0.324473 1.500002 0.140581
v 0.328599 1.500002 0.153279
v 0.339401 1.500002 0.161128
v 0.352753 1.500002 0.161128
v 0.363556 1.500002 0.153279
v 0.367682 1.500002 0.140581
v 0.379323 1.509932 0.116426
v 0.358776 1.509932 0.101498
v 0.333379 1.509932 0.101498
v 0.312832 1.509932 0.116426
v 0.304983 1.509932 0.140581
v 0.312832 1.509932 0.164735
v 0.333379 1.509932 0.179663
v 0.358776 1.509932 0.179663
v 0.379323 1.509932 0.164735
v 0.387171 1.509932 0.140581
v 0.391836 1.525399 0.107335
v 0.363556 1.525399 0.086788
v 0.328599 1.525399 0.086788
v 0.300319 1.525399 0.107335
v 0.289516 1.525399 0.140581
v 0.300319 1.525399 0.173826
v 0.328599 1.525399 0.194373
v 0.363556 1.525399 0.194373
v 0.391836 1.525399 0.173826
v 0.402638 1.525399 0.140581
v 0.399870 1.544889 0.101498
v 0.366624 1.544889 0.077344
v 0.325530 1.544889 0.077344
v 0.292285 1.544889 0.101498
v 0.279586 1.544889 0.140581
v 0.292285 1.544889 0.179663
v 0.325530 1.544889 0.203818
v 0.366624 1.544889 0.203818
v 0.399870 1.544889 0.179663
v 0.412569 1.544889 0.140581
v 0.402638 1.566493 0.099487
v 0.367682 1.566493 0.074089
v 0.324473 1.566493 0.074089
v 0.289516 1.566493 0.099487
v 0.276164 1.566493 0.140581
v 0.289516 1.566493 0.181675
v 0.324473 1.566493 0.207072
v 0.367682 1.566493 0.207072
v 0.402638 1.566493 0.181675
v 0.415991 1.566493 0.140581
v 0.399870 1.588098 0.101498
v 0.366624 1.588098 0.077344
v 0.325530 1.588098 0.077344
v 0.292285 1.588098 0.101498
v 0.279586 1.588098 0.140581
v 0.292285 1.588098 0.179663
v 0.325530 1.588098 0.203818
v 0.366624 1.588098 0.203818
v 0.399870 1.588098 0.179663
v 0.412569 1.588098 0.140581
v 0.391836 1.607587 0.107335
v 0.363556 1.607587 0.086788
v 0.328599 1.607587 0.086788
v 0.300319 1.607587 0.107335
v 0.289516 1.607587 0.140581
v 0.300319 1.607587 0.173826
v 0.328599 1.607587 0.194373
v 0.363556 1.607587 0.194373
v 0.391836 1.607587 0.173826
v 0.402638 1.607587 0.140581
v 0.379323 1.623054 0.116426
v 0.358776 1.623054 0.101498
v 0.333379 1.623054 0.101498
v 0.312832 1.623054 0.116426
v 0.304983 1.623054 0.140581
v 0.312832 1.623054 0.164735
v 0.333379 1.623054 0.179663
v 0.358776 1.623054 0.179663
v 0.379323 1.623054 0.164735
v 0.387171 1.623054 0.140581
v 0.363556 1.632985 0.127882
v 0.352753 1.632985 0.120034
v 0.339401 1.632985 0.120034
v 0.328599 1.632985 0.127882
v 0.324473 1.632985 0.140581
v 0.328599 1.632985 0.153279
v 0.339401 1.632985 0.161128
v 0.352753 1.632985 0.161128
v 0.363556 1.632985 0.153279
v 0.367682 1.632985 0.140581
v 0.346077 1.496580 0.140581
v 0.346077 1.636406 0.140581
v 0.387722 1.238829 -0.030257
v 0.361984 1.238829 -0.048956
v 0.330171 1.238829 -0.048956
v 0.304433 1.238829 -0.030257
v 0.294602 1.238829 0.000000
v 0.304433 1.238829 0.030257
v 0.330171 1.238829 0.048956
v 0.361984 1.238829 0.048956
v 0.387722 1.238829 0.030257
v 0.397553 1.238829 0.000000
v 0.425290 1.262489 -0.057551
v 0.376334 1.262489 -0.093120
v 0.315821 1.262489 -0.093120
v 0.266865 1.262489 -0.057551
v 0.248165 1.262489 0.000000
v 0.266865 1.262489 0.057551
v 0.315821 1.262489 0.093120
v 0.376334 1.262489 0.093120
v 0.425290 1.262489 0.057551
v 0.443989 1.262489 0.000000
v 0.455104 1.299342 -0.079213
v 0.387722 1.299342 -0.128169
v 0.304433 1.299342 -0.128169
v 0.237051 1.299342 -0.079213
v 0.211313 1.299342 0.000000
v 0.237051 1.299342 0.079213
v 0.304433 1.299342 0.128169
v 0.387722 1.299342 0.128169
v 0.455104 1.299342 0.079213
v 0.480842 1.299342 0.000000
v 0.474246 1.345778 -0.093120
v 0.395033 1.345778 -0.150671
v 0.297121 1.345778 -0.150671
v 0.217909 1.345778 -0.093120
v 0.187652 1.345778 0.000000
v 0.217909 1.345778 0.093120
v 0.297121 1.345778 0.150671
v 0.395033 1.345778 0.150671
v 0.474246 1.345778 0.093120
v 0.504502 1.345778 0.000000
v 0.480842 1.397254 -0.097912
v 0.397553 1.397254 -0.158425
v 0.294602 1.397254 -0.158425
v 0.211313 1.397254 -0.097912
v 0.179499 1.397254 0.000000
v 0.211313 1.397254 0.097912
v 0.294602 1.397254 0.158425
v 0.397553 1.397254 0.158425
v 0.480842 1.397254 0.097912
v 0.512655 1.397254 0.000000
v 0.474246 1.448729 -0.093120
v 0.395033 1.448729 -0.150671
v 0.297121 1.448729 -0.150671
v 0.217909 1.448729 -0.093120
v 0.187652 1.448729 0.000000
v 0.217909 1.448729 0.093120
v 0.297121 1.448729 0.150671
v 0.395033 1.448729 0.150671
v 0.474246 1.448729 0.093120
v 0.504502 1.448729 0.000000
v 0.455104 1.495166 -0.079213
v 0.387722 1.495166 -0.128169
v 0.304433 1.495166 -0.128169
v 0.237051 1.495166 -0.079213
v 0.211313 1.495166 0.000000
v 0.237051 1.495166 0.079213
v 0.304433 1.495166 0.128169
v 0.387722 1.495166 0.128169
v 0.455104 1.495166 0.079213
v 0.480842 1.495166 0.000000
v 0.425290 1.532018 -0.057551
v 0.376334 1.532018 -0.093120
v 0.315821 1.532018 -0.093120
v 0.266865 1.532018 -0.057551
v 0.248165 1.532018 0.000000
v 0.266865 1.532018 0.057551
v 0.315821 1.532018 0.093120
v 0.376334 1.532018 0.093120
v 0.425290 1.532018 0.057551
v 0.443989 1.532018 0.000000
v 0.387722 1.555679 -0.030257
v 0.361984 1.555679 -0.048956
v 0.330171 1.555679 -0.048956
v 0.304433 1.555679 -0.030257
v 0.294602 1.555679 0.000000
v 0.304433 1.555679 0.030257
v 0.330171 1.555679 0.048956
v 0.361984 1.555679 0.048956
v 0.387722 1.555679 0.030257
v 0.397553 1.555679 0.000000
v 0.346077 1.230676 0.000000
v 0.346077 1.563832 0.000000
v 0.364049 1.498126 -0.164581
v 0.352942 1.498126 -0.172651
v 0.339213 1.498126 -0.172651
v 0.328106 1.498126 -0.164581
v 0.323863 1.498126 -0.151524
v 0.328106 1.498126 -0.138467
v 0.339213 1.498126 -0.130398
v 0.352942 1.498126 -0.130398
v 0.364049 1.498126 -0.138467
v 0.368291 1.498126 -0.151524
v 0.380261 1.508337 -0.176360
v 0.359134 1.508337 -0.191710
v 0.333020 1.508337 -0.191710
v 0.311894 1.508337 -0.176360
v 0.303824 1.508337 -0.151524
v 0.311894 1.508337 -0.126689
v 0.333020 1.508337 -0.111339
v 0.359134 1.508337 -0.111339
v 0.380261 1.508337 -0.126689
v 0.388331 1.508337 -0.151524
v 0.393127 1.524240 -0.185708
v 0.364049 1.524240 -0.206835
v 0.328106 1.524240 -0.206835
v 0.299028 1.524240 -0.185708
v 0.287921 1.524240 -0.151524
v 0.299028 1.524240 -0.117341
v 0.328106 1.524240 -0.096214
v 0.364049 1.524240 -0.096214
v 0.393127 1.524240 -0.117341
v 0.404234 1.524240 -0.151524
v 0.401388 1.544279 -0.191710
v 0.367204 1.544279 -0.216546
v 0.324951 1.544279 -0.216546
v 0.290767 1.544279 -0.191710
v 0.277710 1.544279 -0.151524
v 0.290767 1.544279 -0.111339
v 0.324951 1.544279 -0.086503
v 0.367204 1.544279 -0.086503
v 0.401388 1.544279 -0.111339
v 0.414445 1.544279 -0.151524
v 0.404234 1.566493 -0.193778
v 0.368291 1.566493 -0.219892
v 0.323863 1.566493 -0.219892
v 0.287921 1.566493 -0.193778
v 0.274192 1.566493 -0.151524
v 0.287921 1.566493 -0.109271
v 0.323863 1.566493 -0.083157
v 0.368291 1.566493 -0.083157
v 0.404234 1.566493 -0.109271
v 0.417963 1.566493 -0.151524
v 0.401388 1.588707 -0.191710
v 0.367204 1.588707 -0.216546
v 0.324951 1.588707 -0.216546
v 0.290767 1.588707 -0.191710
v 0.277710 1.588707 -0.151524
v 0.290767 1.588707 -0.111339
v 0.324951 1.588707 -0.086503
v 0.367204 1.588707 -0.086503
v 0.401388 1.588707 -0.111339
v 0.414445 1.588707 -0.151524
v 0.393127 1.608747 -0.185708
v 0.364049 1.608747 -0.206835
v 0.328106 1.608747 -0.206835
v 0.299028 1.608747 -0.185708
v 0.287921 1.608747 -0.151524
v 0.299028 1.608747 -0.117341
v 0.328106 1.608747 -0.096214
v 0.364049 1.608747 -0.096214
v 0.393127 1.608747 -0.117341
v 0.404234 1.608747 -0.151524
v 0.380261 1.624650 -0.176360
v 0.359134 1.624650 -0.191710
v 0.333020 1.624650 -0.191710
v 0.311894 1.624650 -0.176360
v 0.303824 1.624650 -0.151524
v 0.311894 1.624650 -0.126689
v 0.333020 1.624650 -0.111339
v 0.359134 1.624650 -0.111339
v 0.380261 1.624650 -0.126689
v 0.388331 1.624650 -0.151524
v 0.364049 1.634860 -0.164581
v 0.352942 1.634860 -0.172651
v 0.339213 1.634860 -0.172651
v 0.328106 1.634860 -0.164581
v 0.323863 1.634860 -0.151524
v 0.328106 1.634860 -0.138467
v 0.339213 1.634860 -0.130398
v 0.352942 1.634860 -0.130398
v 0.364049 1.634860 -0.138467
v 0.368291 1.634860 -0.151524
v 0.346077 1.494608 -0.151524
v 0.346077 1.638379 -0.151524
v 0.073198 1.074479 -0.074589
v 0.009749 1.074479 -0.120687
v -0.068678 1.074479 -0.120687
v -0.132127 1.074479 -0.074589
v -0.156363 1.074479 0.000000
v -0.132127 1.074479 0.074589
v -0.068678 1.074479 0.120687
v 0.009749 1.074479 0.120687
v 0.073198 1.074479 0.074589
v 0.097433 1.074479 0.000000
v 0.165811 1.132808 -0.141876
v 0.045124 1.132808 -0.229561
v -0.104053 1.132808 -0.229561
v -0.224741 1.132808 -0.141876
v -0.270839 1.132808 0.000000
v -0.224741 1.132808 0.141876
v -0.104053 1.132808 0.229561
v 0.045124 1.132808 0.229561
v 0.165811 1.132808 0.141876
v 0.211910 1.132808 0.000000
v 0.239310 1.223657 -0.195276
v 0.073198 1.223657 -0.315963
v -0.132127 1.223657 -0.315963
v -0.298239 1.223657 -0.195276
v -0.361688 1.223657 0.000000
v -0.298239 1.223657 0.195276
v -0.132127 1.223657 0.315963
v 0.073198 1.223657 0.315963
v 0.239310 1.223657 0.195276
v 0.302759 1.223657 0.000000
v 0.286498 1.338133 -0.229561
v 0.091222 1.338133 -0.371437
v -0.150152 1.338133 -0.371437
v -0.345428 1.338133 -0.229561
v -0.420017 1.338133 0.000000
v -0.345428 1.338133 0.229561
v -0.150152 1.338133 0.371437
v 0.091222 1.338133 0.371437
v 0.286498 1.338133 0.229561
v 0.361087 1.338133 0.000000
v 0.302759 1.465031 -0.241374
v 0.097433 1.465031 -0.390552
v -0.156363 1.465031 -0.390552
v -0.361688 1.465031 -0.241374
v -0.440115 1.465031 0.000000
v -0.361688 1.465031 0.241374
v -0.156363 1.465031 0.390552
v 0.097433 1.465031 0.390552
v 0.302759 1.465031 0.241374
v 0.381186 1.465031 0.000000
v 0.286498 1.591929 -0.229561
v 0.091222 1.591929 -0.371437
v -0.150152 1.591929 -0.371437
v -0.345428 1.591929 -0.229561
v -0.420017 1.591929 0.000000
v -0.345428 1.591929 0.229561
v -0.150152 1.591929 0.371437
v 0.091222 1.591929 0.371437
v 0.286498 1.591929 0.229561
v 0.361087 1.591929 0.000000
v 0.239310 1.706405 -0.195276
v 0.073198 1.706405 -0.315963
v -0.132127 1.706405 -0.315963
v -0.298239 1.706405 -0.195276
v -0.361688 1.706405 0.000000
v -0.298239 1.706405 0.195276
v -0.132127 1.706405 0.315963
v 0.073198 1.706405 0.315963
v 0.239310 1.706405 0.195276
v 0.302759 1.706405 0.000000
v 0.165811 1.797254 -0.141876
v 0.045124 1.797254 -0.229561
v -0.104053 1.797254 -0.229561
v -0.224741 1.797254 -0.141876
v -0.270839 1.797254 0.000000
v -0.224741 1.797254 0.141876
v -0.104053 1.797254 0.229561
v 0.045124 1.797254 0.229561
v 0.165811 1.797254 0.141876
v 0.211910 1.797254 0.000000
v 0.073198 1.855583 -0.074589
v 0.009749 1.855583 -0.120687
v -0.068678 1.855583 -0.120687
v -0.132127 1.855583 -0.074589
v -0.156363 1.855583 0.000000
v -0.132127 1.855583 0.074589
v -0.068678 1.855583 0.120687
v 0.009749 1.855583 0.120687
v 0.073198 1.855583 0.074589
v 0.097433 1.855583 0.000000
v -0.029465 1.054381 0.000000
v -0.029465 1.875682 0.000000
v 0.267877 1.628963 -0.230307
v 0.073933 1.601271 -0.372645
v -0.165795 1.567040 -0.372645
v -0.359739 1.539348 -0.230307
v -0.433819 1.528770 0.000000
v -0.359739 1.539348 0.230307
v -0.165795 1.567041 0.372645
v 0.073933 1.601271 0.372645
v 0.267876 1.628963 0.230307
v 0.341956 1.639541 0.000000
v 0.235403 1.746634 -0.219035
v 0.050951 1.720297 -0.354406
v -0.177044 1.687742 -0.354406
v -0.361495 1.661405 -0.219035
v -0.431949 1.651345 0.000000
v -0.361495 1.661405 0.219035
v -0.177043 1.687742 0.354406
v 0.050951 1.720297 0.354406
v 0.235403 1.746634 0.219035
v 0.305857 1.756694 0.000000
v 0.175390 1.848401 -0.186322
v 0.018486 1.825997 -0.301476
v -0.175458 1.798304 -0.301476
v -0.332362 1.775900 -0.186322
v -0.392294 1.767342 0.000000
v -0.332362 1.775900 0.186322
v -0.175458 1.798304 0.301476
v 0.018486 1.825997 0.301476
v 0.175390 1.848401 0.186322
v 0.235322 1.856958 0.000000
v 0.093712 1.924301 -0.135371
v -0.020285 1.908023 -0.219035
v -0.161193 1.887903 -0.219035
v -0.275191 1.871626 -0.135371
v -0.318734 1.865408 0.000000
v -0.275191 1.871626 0.135371
v -0.161193 1.887903 0.219035
v -0.020285 1.908023 0.219035
v 0.093712 1.924301 0.135371
v 0.137256 1.930518 0.000000
v -0.001634 1.966905 -0.071169
v -0.061566 1.958347 -0.115154
v -0.135646 1.947770 -0.115154
v -0.195578 1.939212 -0.071169
v -0.218470 1.935943 0.000000
v -0.195578 1.939212 0.071169
v -0.135646 1.947770 0.115154
v -0.061566 1.958347 0.115154
v -0.001634 1.966905 0.071169
v 0.021258 1.970174 0.000000
v -0.101317 1.972043 0.000000
v 0.286849 1.631673 -0.244231
v 0.081179 1.602305 -0.395174
v 0.057843 1.721281 -0.375833
v 0.253446 1.749211 -0.232278
v -0.173042 1.566006 -0.395174
v -0.183936 1.686758 -0.375833
v -0.378711 1.536639 -0.244231
v -0.379539 1.658828 -0.232278
v -0.457270 1.525422 0.000000
v -0.454252 1.648160 0.000000
v -0.378711 1.536639 0.244231
v -0.379539 1.658828 0.232278
v -0.173042 1.566006 0.395174
v -0.183936 1.686758 0.375833
v 0.081179 1.602305 0.395174
v 0.057843 1.721281 0.375833
v 0.286849 1.631673 0.244231
v 0.253446 1.749211 0.232278
v 0.365407 1.642890 0.000000
v 0.328160 1.759879 0.000000
v 0.271537 0.000000 -0.301002
v -0.029465 0.000000 -0.425681
v -0.330467 0.000000 -0.301002
v -0.455146 0.000000 0.000000
v -0.330467 0.000000 0.301002
v -0.029465 0.000000 0.425681
v 0.271537 0.000000 0.301002
v 0.396216 0.000000 0.000000
v 0.166726 1.118376 -0.196191
v -0.029465 1.118376 -0.277456
v -0.225656 1.118376 -0.196191
v -0.306920 1.118376 0.000000
v -0.225656 1.118376 0.196191
v -0.029465 1.118376 0.277456
v 0.166726 1.118376 0.196191
v 0.247991 1.118376 0.000000
v -0.029465 0.000000 0.000000
v -0.029465 1.118376 0.000000
v 0.271537 1.000492 -0.301002
v 0.396216 1.000492 0.000000
v 0.271537 1.000492 0.301002
v -0.029465 1.000492 0.425681
v -0.330467 1.000492 0.301002
v -0.455146 1.000492 0.000000
v -0.330467 1.000492 -0.301002
v -0.029465 1.000492 -0.425681
v 0.236358 1.060621 -0.265823
v 0.346465 1.060621 0.000000
v 0.236358 1.060621 0.265823
v -0.029465 1.060621 0.375930
v -0.295287 1.060621 0.265823
v -0.405395 1.060621 0.000000
v -0.295287 1.060621 -0.265823
v -0.029465 1.060621 -0.375930
vt 0.093584 0.953880
vt 0.093584 0.943483
vt 0.099678 0.943483
vt 0.099678 0.955706
vt 0.088747 0.951037
vt 0.088747 0.943483
vt 0.093584 0.933087
vt 0.099678 0.931261
vt 0.106435 0.943483
vt 0.106435 0.956335
vt 0.093584 0.960306
vt 0.099678 0.963259
vt 0.088747 0.935930
vt 0.093584 0.926661
vt 0.099678 0.923708
vt 0.106435 0.930632
vt 0.113191 0.943483
vt 0.113191 0.955706
vt 0.106435 0.964277
vt 0.106435 0.922690
vt 0.113191 0.931261
vt 0.119286 0.943483
vt 0.119286 0.953880
vt 0.113191 0.963259
vt 0.113191 0.923708
vt 0.119286 0.933087
vt 0.124123 0.943483
vt 0.124123 0.951037
vt 0.119286 0.960306
vt 0.119286 0.926661
vt 0.124123 0.935930
vt 0.135915 0.953880
vt 0.135915 0.943484
vt 0.142010 0.943484
vt 0.142010 0.955706
vt 0.131078 0.951037
vt 0.131078 0.943484
vt 0.135915 0.933087
vt 0.142010 0.931261
vt 0.148766 0.943484
vt 0.148766 0.956335
vt 0.135915 0.960306
vt 0.142010 0.963259
vt 0.131078 0.935930
vt 0.135915 0.926661
vt 0.142010 0.923708
vt 0.148766 0.930632
vt 0.155523 0.943484
vt 0.155523 0.955706
vt 0.148766 0.964277
vt 0.148766 0.922690
vt 0.155523 0.931261
vt 0.161617 0.943484
vt 0.161617 0.953880
vt 0.155523 0.963259
vt 0.155523 0.923708
vt 0.161617 0.933087
vt 0.166454 0.943484
vt 0.166454 0.951037
vt 0.161617 0.960306
vt 0.161617 0.926661
vt 0.166454 0.935930
vt 0.567538 0.921356
vt 0.567538 0.896584
vt 0.582060 0.896584
vt 0.582060 0.925705
vt 0.556013 0.914582
vt 0.556013 0.896584
vt 0.567538 0.871812
vt 0.582060 0.867463
vt 0.598158 0.896584
vt 0.598158 0.927203
vt 0.567538 0.936665
vt 0.582060 0.943702
vt 0.556013 0.878586
vt 0.567538 0.856502
vt 0.582060 0.849465
vt 0.598158 0.865964
vt 0.614255 0.896584
vt 0.614255 0.925705
vt 0.598158 0.946127
vt 0.598158 0.847040
vt 0.614255 0.867463
vt 0.628777 0.896584
vt 0.628777 0.921356
vt 0.614255 0.943702
vt 0.614255 0.849465
vt 0.628777 0.871812
vt 0.640302 0.896584
vt 0.640302 0.914582
vt 0.628777 0.936665
vt 0.628777 0.856502
vt 0.640302 0.878586
vt 0.477192 0.921356
vt 0.477192 0.896584
vt 0.491714 0.896584
vt 0.491714 0.925705
vt 0.465668 0.914582
vt 0.465668 0.896584
vt 0.477192 0.871812
vt 0.491714 0.867463
vt 0.507812 0.896584
vt 0.507812 0.927203
vt 0.477192 0.936665
vt 0.491714 0.943703
vt 0.465668 0.878586
vt 0.477192 0.856502
vt 0.491714 0.849465
vt 0.507812 0.865964
vt 0.523910 0.896584
vt 0.523910 0.925705
vt 0.507812 0.946127
vt 0.507812 0.847040
vt 0.523910 0.867463
vt 0.538432 0.896584
vt 0.538432 0.921356
vt 0.523910 0.943703
vt 0.523910 0.849465
vt 0.538432 0.871812
vt 0.549956 0.896584
vt 0.549956 0.914582
vt 0.538432 0.936665
vt 0.538432 0.856502
vt 0.549956 0.878586
vt 0.006940 0.944700
vt 0.006940 0.934009
vt 0.013207 0.934009
vt 0.013207 0.946576
vt 0.001967 0.941776
vt 0.001967 0.934009
vt 0.006940 0.923319
vt 0.013207 0.921443
vt 0.020154 0.934009
vt 0.020154 0.947223
vt 0.006940 0.951306
vt 0.013207 0.954343
vt 0.001967 0.926243
vt 0.006940 0.916713
vt 0.013207 0.913676
vt 0.020154 0.920796
vt 0.027101 0.934009
vt 0.027101 0.946576
vt 0.020154 0.955390
vt 0.020154 0.912629
vt 0.027101 0.921443
vt 0.033367 0.934009
vt 0.033367 0.944700
vt 0.027101 0.954343
vt 0.027101 0.913676
vt 0.033367 0.923319
vt 0.038341 0.934009
vt 0.038341 0.941776
vt 0.033367 0.951306
vt 0.033367 0.916713
vt 0.038341 0.926243
vt 0.049464 0.944700
vt 0.049464 0.934010
vt 0.055731 0.934010
vt 0.055731 0.946576
vt 0.044491 0.941776
vt 0.044491 0.934010
vt 0.049464 0.923320
vt 0.055731 0.921443
vt 0.062678 0.934010
vt 0.062678 0.947223
vt 0.049464 0.951306
vt 0.055731 0.954343
vt 0.044491 0.926243
vt 0.049464 0.916713
vt 0.055731 0.913676
vt 0.062678 0.920796
vt 0.069625 0.934010
vt 0.069625 0.946576
vt 0.062678 0.955390
vt 0.062678 0.912629
vt 0.069625 0.921443
vt 0.075892 0.934010
vt 0.075892 0.944700
vt 0.069625 0.954343
vt 0.069625 0.913676
vt 0.075892 0.923320
vt 0.080865 0.934010
vt 0.080865 0.941776
vt 0.075892 0.951306
vt 0.075892 0.916713
vt 0.080865 0.926243
vt 0.273015 0.782032
vt 0.273015 0.720964
vt 0.308814 0.720964
vt 0.308814 0.792753
vt 0.244604 0.765332
vt 0.244604 0.720964
vt 0.273015 0.659896
vt 0.308814 0.649175
vt 0.348499 0.720964
vt 0.348499 0.796448
vt 0.273015 0.819774
vt 0.308814 0.837122
vt 0.244604 0.676596
vt 0.273015 0.622154
vt 0.308814 0.604806
vt 0.348499 0.645480
vt 0.388183 0.720964
vt 0.388183 0.792753
vt 0.348499 0.843099
vt 0.348499 0.598829
vt 0.388183 0.649175
vt 0.423983 0.720964
vt 0.423983 0.782032
vt 0.388183 0.837122
vt 0.388183 0.604806
vt 0.423983 0.659896
vt 0.452393 0.720964
vt 0.452393 0.765332
vt 0.423983 0.819774
vt 0.423983 0.622154
vt 0.452393 0.676596
vt 0.488521 0.782032
vt 0.488521 0.720964
vt 0.524321 0.720964
vt 0.524321 0.792754
vt 0.460111 0.765332
vt 0.460111 0.720964
vt 0.488521 0.659896
vt 0.524321 0.649175
vt 0.564005 0.720964
vt 0.564005 0.796448
vt 0.488521 0.819774
vt 0.524321 0.837122
vt 0.460111 0.676596
vt 0.488521 0.622154
vt 0.524321 0.604806
vt 0.564005 0.645480
vt 0.603690 0.720964
vt 0.603690 0.792754
vt 0.564005 0.843100
vt 0.564005 0.598829
vt 0.603690 0.649175
vt 0.639489 0.720964
vt 0.639489 0.782032
vt 0.603690 0.837122
vt 0.603690 0.604806
vt 0.639489 0.659896
vt 0.667900 0.720964
vt 0.667900 0.765332
vt 0.639489 0.819774
vt 0.639489 0.622154
vt 0.667900 0.676596
vt 0.116333 0.537574
vt 0.112825 0.461197
vt 0.151209 0.461197
vt 0.154545 0.533836
vt 0.116333 0.384820
vt 0.154545 0.388558
vt 0.125517 0.584778
vt 0.163279 0.578729
vt 0.125517 0.337616
vt 0.163279 0.343664
vt 0.178520 0.537574
vt 0.182028 0.461197
vt 0.218614 0.461197
vt 0.215278 0.533836
vt 0.178520 0.384820
vt 0.215278 0.388558
vt 0.169337 0.584778
vt 0.206543 0.578729
vt 0.169337 0.337616
vt 0.206543 0.343664
vt 0.678763 0.768325
vt 0.675617 0.699827
vt 0.711893 0.699827
vt 0.714569 0.758095
vt 0.678763 0.631329
vt 0.714569 0.641559
vt 0.742560 0.699827
vt 0.744505 0.742161
vt 0.687000 0.810659
vt 0.721575 0.794106
vt 0.687000 0.588995
vt 0.721575 0.605548
vt 0.744505 0.657493
vt 0.764619 0.699827
vt 0.765641 0.722083
vt 0.749595 0.768325
vt 0.749595 0.631329
vt 0.765641 0.677571
vt 0.001967 0.001992
vt 0.096098 0.001992
vt 0.096098 0.314871
vt 0.001967 0.314871
vt 0.190229 0.001992
vt 0.190229 0.314871
vt 0.096098 0.333675
vt 0.012968 0.333675
vt 0.179227 0.333675
vt 0.196500 0.001992
vt 0.290631 0.001992
vt 0.290631 0.314871
vt 0.196500 0.314871
vt 0.384762 0.001992
vt 0.384762 0.314871
vt 0.290631 0.333675
vt 0.207501 0.333675
vt 0.373760 0.333675
vt 0.266304 0.944404
vt 0.262926 0.941950
vt 0.264809 0.936153
vt 0.271235 0.940822
vt 0.260838 0.948376
vt 0.258750 0.941950
vt 0.256867 0.936153
vt 0.266304 0.931553
vt 0.275148 0.937979
vt 0.267594 0.948376
vt 0.273689 0.948376
vt 0.255372 0.944404
vt 0.250441 0.940822
vt 0.255372 0.931553
vt 0.266304 0.952347
vt 0.271235 0.955929
vt 0.254082 0.948376
vt 0.247987 0.948376
vt 0.246528 0.937979
vt 0.262926 0.954801
vt 0.264809 0.960598
vt 0.255372 0.952347
vt 0.250441 0.955929
vt 0.275148 0.958772
vt 0.266304 0.965198
vt 0.258750 0.954801
vt 0.256867 0.960598
vt 0.255372 0.965198
vt 0.246528 0.958772
vt 0.307794 0.955520
vt 0.301369 0.960188
vt 0.299485 0.954392
vt 0.302863 0.951937
vt 0.311707 0.958363
vt 0.302863 0.964789
vt 0.293426 0.960188
vt 0.295310 0.954392
vt 0.297397 0.947966
vt 0.310248 0.947966
vt 0.304154 0.947966
vt 0.291931 0.964789
vt 0.287001 0.955520
vt 0.291931 0.951937
vt 0.307794 0.940413
vt 0.302863 0.943995
vt 0.283087 0.958363
vt 0.284546 0.947966
vt 0.290641 0.947966
vt 0.301369 0.935744
vt 0.299485 0.941541
vt 0.287001 0.940413
vt 0.291931 0.943995
vt 0.302863 0.931144
vt 0.311707 0.937569
vt 0.293426 0.935744
vt 0.295310 0.941541
vt 0.291931 0.931144
vt 0.283087 0.937569
vt 0.329307 0.877660
vt 0.321258 0.871812
vt 0.325746 0.858001
vt 0.341055 0.869124
vt 0.316284 0.887122
vt 0.311309 0.871812
vt 0.306822 0.858001
vt 0.329307 0.847040
vt 0.350379 0.862350
vt 0.332381 0.887122
vt 0.346903 0.887122
vt 0.303260 0.877660
vt 0.291512 0.869124
vt 0.303260 0.847040
vt 0.329307 0.896584
vt 0.341055 0.905119
vt 0.300186 0.887122
vt 0.285664 0.887122
vt 0.282188 0.862350
vt 0.321258 0.902431
vt 0.325746 0.916243
vt 0.303260 0.896584
vt 0.291512 0.905119
vt 0.350379 0.911893
vt 0.329307 0.927203
vt 0.311309 0.902431
vt 0.306822 0.916243
vt 0.303260 0.927203
vt 0.282188 0.911893
vt 0.266807 0.905529
vt 0.251497 0.916652
vt 0.247010 0.902841
vt 0.255059 0.896993
vt 0.276131 0.912303
vt 0.255059 0.927613
vt 0.232573 0.916652
vt 0.237061 0.902841
vt 0.242035 0.887531
vt 0.272655 0.887531
vt 0.258133 0.887531
vt 0.229012 0.927613
vt 0.217264 0.905529
vt 0.229012 0.896993
vt 0.266807 0.869533
vt 0.255059 0.878069
vt 0.207940 0.912303
vt 0.211416 0.887531
vt 0.225938 0.887531
vt 0.251497 0.858410
vt 0.247010 0.872221
vt 0.217264 0.869533
vt 0.229012 0.878069
vt 0.255059 0.847449
vt 0.276131 0.862759
vt 0.232573 0.858410
vt 0.237061 0.872221
vt 0.229012 0.847449
vt 0.207940 0.862759
vt 0.193744 0.935904
vt 0.190270 0.933380
vt 0.192207 0.927420
vt 0.198814 0.932220
vt 0.188124 0.939987
vt 0.185977 0.933380
vt 0.184040 0.927420
vt 0.193744 0.922690
vt 0.202837 0.929297
vt 0.195070 0.939987
vt 0.201337 0.939987
vt 0.182503 0.935904
vt 0.177433 0.932220
vt 0.182503 0.922690
vt 0.193744 0.944070
vt 0.198814 0.947754
vt 0.181177 0.939987
vt 0.174910 0.939987
vt 0.173410 0.929297
vt 0.190270 0.946594
vt 0.192207 0.952554
vt 0.182503 0.944070
vt 0.177433 0.947754
vt 0.202837 0.950677
vt 0.193744 0.957284
vt 0.185977 0.946594
vt 0.184040 0.952554
vt 0.182503 0.957284
vt 0.173410 0.950677
vt 0.235373 0.956617
vt 0.228766 0.961417
vt 0.226829 0.955457
vt 0.230303 0.952933
vt 0.239396 0.959540
vt 0.230303 0.966147
vt 0.220599 0.961417
vt 0.222536 0.955457
vt 0.224683 0.948850
vt 0.237896 0.948850
vt 0.231630 0.948850
vt 0.219063 0.966147
vt 0.213993 0.956617
vt 0.219063 0.952933
vt 0.235373 0.941083
vt 0.230303 0.944767
vt 0.209969 0.959540
vt 0.211469 0.948850
vt 0.217736 0.948850
vt 0.228766 0.936283
vt 0.226829 0.942243
vt 0.213993 0.941083
vt 0.219063 0.944767
vt 0.230303 0.931553
vt 0.239396 0.938160
vt 0.220599 0.936283
vt 0.222536 0.942243
vt 0.219063 0.931553
vt 0.209969 0.938160
vt 0.887983 0.664479
vt 0.868141 0.650063
vt 0.879204 0.616015
vt 0.916946 0.643436
vt 0.855878 0.687805
vt 0.843615 0.650063
vt 0.832552 0.616015
vt 0.887983 0.588995
vt 0.939931 0.626737
vt 0.895562 0.687805
vt 0.931362 0.687805
vt 0.823773 0.664479
vt 0.794810 0.643436
vt 0.823773 0.588995
vt 0.887983 0.711131
vt 0.916946 0.732173
vt 0.816194 0.687805
vt 0.780394 0.687805
vt 0.771826 0.626737
vt 0.868141 0.725547
vt 0.879204 0.759594
vt 0.823773 0.711131
vt 0.794810 0.732173
vt 0.939931 0.748873
vt 0.887983 0.786614
vt 0.843615 0.725547
vt 0.832552 0.759594
vt 0.823773 0.786614
vt 0.771826 0.748873
vt 0.962331 0.933733
vt 0.924589 0.961154
vt 0.913526 0.927107
vt 0.933368 0.912691
vt 0.985316 0.950432
vt 0.933368 0.988174
vt 0.877937 0.961154
vt 0.889000 0.927107
vt 0.901263 0.889365
vt 0.976747 0.889365
vt 0.940947 0.889365
vt 0.869158 0.988174
vt 0.840195 0.933733
vt 0.869158 0.912691
vt 0.962331 0.844996
vt 0.933368 0.866039
vt 0.817211 0.950432
vt 0.825779 0.889365
vt 0.861579 0.889365
vt 0.924589 0.817575
vt 0.913526 0.851623
vt 0.840195 0.844996
vt 0.869158 0.866039
vt 0.933368 0.790555
vt 0.985316 0.828297
vt 0.877937 0.817575
vt 0.889000 0.851623
vt 0.869158 0.790555
vt 0.817211 0.828297
vt 0.161833 0.672146
vt 0.187997 0.707796
vt 0.155511 0.720706
vt 0.141755 0.701964
vt 0.177767 0.646604
vt 0.213778 0.695672
vt 0.187997 0.751862
vt 0.155511 0.743872
vt 0.119499 0.733137
vt 0.119499 0.658529
vt 0.119499 0.694805
vt 0.187997 0.627836
vt 0.230331 0.685519
vt 0.213778 0.756323
vt 0.119499 0.627862
vt 0.161833 0.787512
vt 0.141755 0.762615
vt 0.077165 0.672146
vt 0.097243 0.701964
vt 0.192138 0.622194
vt 0.237032 0.683364
vt 0.119499 0.605803
vt 0.061231 0.646604
vt 0.051001 0.707796
vt 0.083488 0.720706
vt 0.119499 0.598829
vt 0.230331 0.756819
vt 0.237032 0.758974
vt 0.051001 0.627836
vt 0.025220 0.695672
vt 0.119499 0.769774
vt 0.051001 0.751862
vt 0.083488 0.743872
vt 0.046860 0.622194
vt 0.187997 0.814501
vt 0.192138 0.820144
vt 0.008667 0.685519
vt 0.025220 0.756323
vt 0.097243 0.762615
vt 0.077165 0.787512
vt 0.001967 0.683364
vt 0.119499 0.836534
vt 0.119499 0.843509
vt 0.008667 0.756819
vt 0.001967 0.758974
vt 0.051001 0.814501
vt 0.046860 0.820144
vt 0.276229 0.368116
vt 0.231717 0.428767
vt 0.224671 0.426501
vt 0.271875 0.362183
vt 0.231717 0.503736
vt 0.224671 0.506003
vt 0.348252 0.344950
vt 0.348252 0.337616
vt 0.276229 0.564388
vt 0.271875 0.570321
vt 0.420275 0.368116
vt 0.424629 0.362183
vt 0.348252 0.587554
vt 0.348252 0.594888
vt 0.464787 0.428767
vt 0.471833 0.426501
vt 0.420275 0.564388
vt 0.424629 0.570321
vt 0.464787 0.503736
vt 0.471833 0.506003
vt 0.719073 0.451933
vt 0.758063 0.357802
vt 0.852194 0.451933
vt 0.852194 0.318812
vt 0.758063 0.546064
vt 0.946325 0.357802
vt 0.852194 0.585054
vt 0.985316 0.451933
vt 0.946325 0.546064
vt 0.656807 0.513287
vt 0.595453 0.538701
vt 0.595453 0.451933
vt 0.678583 0.535063
vt 0.595453 0.569496
vt 0.534099 0.513287
vt 0.682220 0.451933
vt 0.689584 0.546064
vt 0.595453 0.585055
vt 0.512324 0.535063
vt 0.713016 0.451933
vt 0.508686 0.451933
vt 0.656807 0.390579
vt 0.501322 0.546064
vt 0.477890 0.451933
vt 0.678583 0.368804
vt 0.534099 0.390579
vt 0.595453 0.365166
vt 0.512324 0.368804
vt 0.595453 0.334370
vt 0.595453 0.318812
vt 0.689584 0.357802
vt 0.501322 0.357802
vt 0.374200 0.959591
vt 0.363269 0.959591
vt 0.362309 0.953496
vt 0.375160 0.953496
vt 0.361978 0.946740
vt 0.375491 0.946740
vt 0.362309 0.939984
vt 0.375160 0.939984
vt 0.363269 0.933889
vt 0.374200 0.933889
vt 0.384434 0.933889
vt 0.395366 0.933889
vt 0.396326 0.939984
vt 0.383475 0.939984
vt 0.396657 0.946740
vt 0.383144 0.946740
vt 0.396326 0.953496
vt 0.383475 0.953496
vt 0.395366 0.959591
vt 0.384434 0.959591
vt 0.100223 0.908689
vt 0.074176 0.908689
vt 0.071889 0.894167
vt 0.102509 0.894167
vt 0.071102 0.878069
vt 0.103297 0.878069
vt 0.071889 0.861971
vt 0.102509 0.861971
vt 0.074176 0.847449
vt 0.100223 0.847449
vt 0.035923 0.847449
vt 0.061970 0.847449
vt 0.064256 0.861971
vt 0.033637 0.861971
vt 0.065044 0.878069
vt 0.032849 0.878069
vt 0.064256 0.894167
vt 0.033637 0.894167
vt 0.061970 0.908689
vt 0.035923 0.908689
vt 0.332213 0.957571
vt 0.320973 0.957571
vt 0.319987 0.951304
vt 0.333200 0.951304
vt 0.319647 0.944358
vt 0.333540 0.944358
vt 0.319987 0.937411
vt 0.333200 0.937411
vt 0.320973 0.931144
vt 0.332213 0.931144
vt 0.342139 0.933889
vt 0.353379 0.933889
vt 0.354366 0.940156
vt 0.341152 0.940156
vt 0.354706 0.947103
vt 0.340812 0.947103
vt 0.354366 0.954049
vt 0.341152 0.954049
vt 0.353379 0.960316
vt 0.342139 0.960316
vt 0.803574 0.965567
vt 0.739364 0.965567
vt 0.733727 0.929768
vt 0.809211 0.929768
vt 0.731785 0.890083
vt 0.811153 0.890083
vt 0.733727 0.850399
vt 0.809211 0.850399
vt 0.739364 0.814600
vt 0.803574 0.814600
vt 0.653938 0.847040
vt 0.718149 0.847040
vt 0.723785 0.882840
vt 0.648301 0.882840
vt 0.725728 0.922524
vt 0.646359 0.922524
vt 0.723785 0.962208
vt 0.648301 0.962208
vt 0.718149 0.998008
vt 0.653938 0.998008
vt 0.448258 0.847040
vt 0.459610 0.926542
vt 0.421848 0.929948
vt 0.411052 0.854338
vt 0.356436 0.926541
vt 0.367788 0.847040
vt 0.404995 0.854338
vt 0.394199 0.929948
vt 0.191702 0.847449
vt 0.201883 0.918749
vt 0.167307 0.918253
vt 0.158647 0.857602
vt 0.109354 0.918749
vt 0.119535 0.847449
vt 0.152590 0.857602
vt 0.143930 0.918253
vt 0.579103 0.314871
vt 0.484972 0.314871
vt 0.484972 0.001992
vt 0.579103 0.001992
vt 0.390841 0.314871
vt 0.390841 0.001992
vt 0.585181 0.001992
vt 0.679312 0.001992
vt 0.679312 0.314871
vt 0.585181 0.314871
vt 0.773443 0.001992
vt 0.773443 0.314871
vn 0.323957 -0.916325 -0.235372
vn 0.123741 -0.916325 -0.380837
vn 0.195835 -0.773548 -0.602720
vn 0.512704 -0.773548 -0.372503
vn -0.123741 -0.916325 -0.380837
vn -0.195835 -0.773547 -0.602722
vn -0.323958 -0.916325 -0.235371
vn -0.512704 -0.773548 -0.372503
vn -0.400434 -0.916326 0.000002
vn -0.633737 -0.773548 0.000001
vn -0.323958 -0.916325 0.235372
vn -0.512704 -0.773548 0.372503
vn -0.123740 -0.916325 0.380837
vn -0.195835 -0.773548 0.602721
vn 0.123740 -0.916325 0.380837
vn 0.195835 -0.773547 0.602722
vn 0.323957 -0.916325 0.235370
vn 0.512704 -0.773548 0.372503
vn 0.400434 -0.916326 -0.000002
vn 0.633737 -0.773548 -0.000001
vn 0.256443 -0.557962 -0.789250
vn 0.671376 -0.557962 -0.487783
vn -0.256443 -0.557962 -0.789250
vn -0.671376 -0.557961 -0.487784
vn -0.829867 -0.557962 0.000000
vn -0.671376 -0.557962 0.487784
vn -0.256443 -0.557962 0.789250
vn 0.256443 -0.557962 0.789250
vn 0.671376 -0.557962 0.487783
vn 0.829867 -0.557962 0.000000
vn 0.295557 -0.291929 -0.909628
vn 0.773776 -0.291929 -0.562181
vn -0.295557 -0.291930 -0.909628
vn -0.773776 -0.291930 -0.562181
vn -0.956440 -0.291929 -0.000000
vn -0.773776 -0.291929 0.562181
vn -0.295557 -0.291930 0.909628
vn 0.295557 -0.291930 0.909628
vn 0.773777 -0.291930 0.562180
vn 0.956440 -0.291929 -0.000000
vn 0.309017 0.000000 -0.951057
vn 0.809017 -0.000000 -0.587785
vn -0.309017 0.000000 -0.951057
vn -0.809016 -0.000000 -0.587786
vn -1.000000 0.000000 -0.000000
vn -0.809017 -0.000000 0.587785
vn -0.309017 0.000000 0.951056
vn 0.309017 0.000000 0.951057
vn 0.809017 -0.000000 0.587785
vn 1.000000 -0.000000 0.000000
vn 0.295556 0.291931 -0.909628
vn 0.773776 0.291931 -0.562180
vn -0.295556 0.291931 -0.909628
vn -0.773776 0.291931 -0.562181
vn -0.956439 0.291931 -0.000000
vn -0.773776 0.291931 0.562180
vn -0.295555 0.291930 0.909628
vn 0.295555 0.291930 0.909628
vn 0.773776 0.291931 0.562181
vn 0.956439 0.291931 0.000000
vn 0.256442 0.557962 -0.789250
vn 0.671376 0.557963 -0.487783
vn -0.256443 0.557962 -0.789250
vn -0.671376 0.557962 -0.487783
vn -0.829866 0.557963 -0.000001
vn -0.671376 0.557962 0.487783
vn -0.256442 0.557962 0.789250
vn 0.256442 0.557962 0.789250
vn 0.671376 0.557962 0.487784
vn 0.829866 0.557963 0.000000
vn 0.195836 0.773546 -0.602723
vn 0.512706 0.773547 -0.372503
vn -0.195836 0.773547 -0.602722
vn -0.512706 0.773546 -0.372503
vn -0.633740 0.773546 -0.000000
vn -0.512706 0.773546 0.372503
vn -0.195836 0.773547 0.602721
vn 0.195837 0.773548 0.602721
vn 0.512706 0.773547 0.372503
vn 0.633740 0.773546 0.000000
vn 0.123741 0.916327 -0.380833
vn 0.323958 0.916326 -0.235369
vn -0.123741 0.916327 -0.380832
vn -0.323958 0.916326 -0.235366
vn -0.400434 0.916326 0.000002
vn -0.323958 0.916326 0.235369
vn -0.123741 0.916327 0.380833
vn 0.123741 0.916327 0.380832
vn 0.323958 0.916326 0.235366
vn 0.400434 0.916326 -0.000002
vn -0.000000 -1.000000 0.000000
vn -0.000000 1.000000 0.000000
vn 0.323957 -0.916326 -0.235369
vn 0.123740 -0.916326 -0.380834
vn 0.195836 -0.773547 -0.602722
vn 0.512705 -0.773547 -0.372502
vn -0.123740 -0.916327 -0.380833
vn -0.195836 -0.773547 -0.602722
vn -0.323957 -0.916326 -0.235368
vn -0.512705 -0.773547 -0.372503
vn -0.400433 -0.916326 -0.000000
vn -0.633738 -0.773548 0.000000
vn -0.323957 -0.916326 0.235369
vn -0.512705 -0.773547 0.372502
vn -0.123740 -0.916326 0.380834
vn -0.195836 -0.773547 0.602722
vn 0.123740 -0.916327 0.380833
vn 0.195836 -0.773547 0.602721
vn 0.323957 -0.916326 0.235368
vn 0.512705 -0.773548 0.372502
vn 0.400432 -0.916326 0.000000
vn 0.633738 -0.773548 0.000000
vn 0.256443 -0.557962 -0.789250
vn 0.671376 -0.557962 -0.487783
vn -0.256443 -0.557962 -0.789250
vn -0.671376 -0.557962 -0.487784
vn -0.829866 -0.557962 0.000000
vn -0.671376 -0.557962 0.487783
vn -0.256443 -0.557962 0.789250
vn 0.256443 -0.557962 0.789250
vn 0.671376 -0.557962 0.487783
vn 0.829867 -0.557962 0.000000
vn 0.295556 -0.291930 -0.909628
vn 0.773776 -0.291930 -0.562181
vn -0.295556 -0.291930 -0.909628
vn -0.773776 -0.291930 -0.562181
vn -0.956440 -0.291930 0.000000
vn -0.773776 -0.291931 0.562181
vn -0.295556 -0.291930 0.909628
vn 0.295556 -0.291930 0.909628
vn 0.773776 -0.291930 0.562181
vn 0.956440 -0.291930 0.000000
vn 0.309017 0.000000 -0.951057
vn 0.809017 0.000000 -0.587785
vn -0.309017 0.000000 -0.951056
vn -0.809017 -0.000000 -0.587785
vn -1.000000 -0.000000 0.000000
vn -0.809017 0.000000 0.587785
vn -0.309017 0.000000 0.951056
vn 0.309017 0.000000 0.951057
vn 0.809017 -0.000000 0.587785
vn 1.000000 -0.000000 0.000000
vn 0.295556 0.291931 -0.909628
vn 0.773776 0.291930 -0.562181
vn -0.295556 0.291931 -0.909628
vn -0.773776 0.291930 -0.562181
vn -0.956440 0.291930 0.000000
vn -0.773776 0.291930 0.562181
vn -0.295556 0.291930 0.909628
vn 0.295556 0.291930 0.909628
vn 0.773776 0.291930 0.562181
vn 0.956440 0.291930 0.000000
vn 0.256443 0.557962 -0.789250
vn 0.671376 0.557962 -0.487783
vn -0.256443 0.557962 -0.789250
vn -0.671376 0.557962 -0.487783
vn -0.829866 0.557962 0.000000
vn -0.671376 0.557962 0.487784
vn -0.256443 0.557962 0.789250
vn 0.256443 0.557962 0.789250
vn 0.671376 0.557962 0.487783
vn 0.829867 0.557962 0.000000
vn 0.195836 0.773547 -0.602721
vn 0.512705 0.773548 -0.372502
vn -0.195836 0.773547 -0.602721
vn -0.512705 0.773547 -0.372502
vn -0.633738 0.773547 -0.000000
vn -0.512705 0.773548 0.372502
vn -0.195836 0.773548 0.602721
vn 0.195836 0.773547 0.602721
vn 0.512705 0.773548 0.372502
vn 0.633738 0.773548 0.000001
vn 0.123740 0.916326 -0.380834
vn 0.323957 0.916326 -0.235368
vn -0.123740 0.916326 -0.380834
vn -0.323957 0.916326 -0.235369
vn -0.400432 0.916326 -0.000001
vn -0.323957 0.916326 0.235369
vn -0.123740 0.916326 0.380835
vn 0.123740 0.916326 0.380834
vn 0.323957 0.916326 0.235369
vn 0.400432 0.916326 0.000001
vn 0.000000 -1.000000 0.000000
vn 0.000000 1.000000 -0.000000
vn 0.323955 -0.916327 -0.235366
vn 0.123740 -0.916327 -0.380832
vn 0.195836 -0.773548 -0.602721
vn 0.512707 -0.773546 -0.372502
vn -0.123740 -0.916328 -0.380831
vn -0.195837 -0.773547 -0.602721
vn -0.323955 -0.916328 -0.235364
vn -0.512707 -0.773547 -0.372501
vn -0.400430 -0.916327 0.000000
vn -0.633740 -0.773546 0.000001
vn -0.323955 -0.916327 0.235366
vn -0.512707 -0.773547 0.372502
vn -0.123740 -0.916327 0.380832
vn -0.195836 -0.773547 0.602722
vn 0.123740 -0.916328 0.380831
vn 0.195837 -0.773547 0.602721
vn 0.323955 -0.916328 0.235365
vn 0.512707 -0.773547 0.372501
vn 0.400430 -0.916327 -0.000000
vn 0.633740 -0.773546 -0.000001
vn 0.256443 -0.557963 -0.789249
vn 0.671376 -0.557962 -0.487783
vn -0.256444 -0.557963 -0.789249
vn -0.671376 -0.557962 -0.487782
vn -0.829867 -0.557962 0.000001
vn -0.671376 -0.557962 0.487784
vn -0.256443 -0.557962 0.789250
vn 0.256443 -0.557963 0.789250
vn 0.671376 -0.557963 0.487783
vn 0.829867 -0.557962 -0.000001
vn 0.295556 -0.291930 -0.909628
vn 0.773776 -0.291930 -0.562181
vn -0.295556 -0.291930 -0.909628
vn -0.773776 -0.291930 -0.562181
vn -0.956440 -0.291930 0.000000
vn -0.773776 -0.291930 0.562181
vn -0.295556 -0.291930 0.909628
vn 0.295556 -0.291930 0.909628
vn 0.773776 -0.291930 0.562182
vn 0.956440 -0.291930 -0.000000
vn 0.309016 -0.000000 -0.951057
vn 0.809017 -0.000000 -0.587785
vn -0.309017 0.000000 -0.951057
vn -0.809017 0.000000 -0.587786
vn -1.000000 0.000000 -0.000000
vn -0.809017 -0.000000 0.587785
vn -0.309016 -0.000000 0.951057
vn 0.309016 0.000000 0.951057
vn 0.809017 0.000000 0.587785
vn 1.000000 -0.000000 -0.000000
vn 0.295555 0.291930 -0.909629
vn 0.773776 0.291930 -0.562181
vn -0.295556 0.291930 -0.909628
vn -0.773776 0.291931 -0.562181
vn -0.956439 0.291931 0.000001
vn -0.773775 0.291931 0.562181
vn -0.295555 0.291930 0.909629
vn 0.295556 0.291930 0.909628
vn 0.773776 0.291931 0.562181
vn 0.956440 0.291931 -0.000001
vn 0.256442 0.557961 -0.789251
vn 0.671377 0.557961 -0.487784
vn -0.256444 0.557961 -0.789250
vn -0.671377 0.557961 -0.487784
vn -0.829867 0.557961 -0.000001
vn -0.671376 0.557961 0.487784
vn -0.256442 0.557961 0.789251
vn 0.256443 0.557961 0.789251
vn 0.671376 0.557961 0.487784
vn 0.829867 0.557961 0.000000
vn 0.195835 0.773549 -0.602720
vn 0.512704 0.773550 -0.372499
vn -0.195836 0.773549 -0.602719
vn -0.512703 0.773549 -0.372502
vn -0.633737 0.773549 -0.000004
vn -0.512704 0.773549 0.372499
vn -0.195835 0.773549 0.602719
vn 0.195836 0.773549 0.602719
vn 0.512703 0.773549 0.372502
vn 0.633737 0.773549 0.000003
vn 0.123741 0.916326 -0.380833
vn 0.323958 0.916326 -0.235367
vn -0.123741 0.916327 -0.380833
vn -0.323958 0.916326 -0.235369
vn -0.400434 0.916326 -0.000003
vn -0.323958 0.916326 0.235366
vn -0.123741 0.916326 0.380833
vn 0.123741 0.916327 0.380833
vn 0.323958 0.916326 0.235369
vn 0.400434 0.916326 0.000003
vn -0.000000 -1.000000 0.000000
vn -0.000000 1.000000 0.000000
vn 0.323956 -0.916327 -0.235368
vn 0.123740 -0.916327 -0.380833
vn 0.195836 -0.773548 -0.602721
vn 0.512705 -0.773548 -0.372502
vn -0.123740 -0.916327 -0.380833
vn -0.195836 -0.773548 -0.602721
vn -0.323956 -0.916327 -0.235367
vn -0.512705 -0.773548 -0.372502
vn -0.400432 -0.916327 0.000000
vn -0.633738 -0.773548 0.000000
vn -0.323956 -0.916327 0.235367
vn -0.512705 -0.773548 0.372502
vn -0.123740 -0.916327 0.380833
vn -0.195836 -0.773548 0.602721
vn 0.123740 -0.916327 0.380833
vn 0.195836 -0.773548 0.602721
vn 0.323956 -0.916327 0.235368
vn 0.512705 -0.773548 0.372502
vn 0.400432 -0.916327 0.000000
vn 0.633738 -0.773548 0.000000
vn 0.256443 -0.557962 -0.789250
vn 0.671376 -0.557962 -0.487783
vn -0.256443 -0.557962 -0.789250
vn -0.671376 -0.557962 -0.487783
vn -0.829866 -0.557962 -0.000000
vn -0.671376 -0.557962 0.487783
vn -0.256443 -0.557962 0.789250
vn 0.256443 -0.557962 0.789250
vn 0.671376 -0.557962 0.487783
vn 0.829866 -0.557962 0.000000
vn 0.295556 -0.291930 -0.909628
vn 0.773776 -0.291930 -0.562181
vn -0.295556 -0.291930 -0.909628
vn -0.773776 -0.291930 -0.562181
vn -0.956440 -0.291930 0.000000
vn -0.773776 -0.291930 0.562181
vn -0.295556 -0.291930 0.909628
vn 0.295556 -0.291930 0.909628
vn 0.773776 -0.291930 0.562181
vn 0.956440 -0.291930 -0.000000
vn 0.309017 -0.000000 -0.951057
vn 0.809017 0.000000 -0.587785
vn -0.309017 -0.000000 -0.951056
vn -0.809017 0.000000 -0.587785
vn -1.000000 -0.000000 0.000000
vn -0.809017 0.000000 0.587785
vn -0.309017 -0.000000 0.951057
vn 0.309017 -0.000000 0.951057
vn 0.809017 0.000000 0.587785
vn 1.000000 0.000000 0.000000
vn 0.295556 0.291930 -0.909628
vn 0.773776 0.291930 -0.562181
vn -0.295556 0.291930 -0.909628
vn -0.773776 0.291930 -0.562181
vn -0.956440 0.291930 0.000000
vn -0.773776 0.291930 0.562181
vn -0.295556 0.291930 0.909628
vn 0.295556 0.291930 0.909628
vn 0.773776 0.291930 0.562181
vn 0.956440 0.291930 0.000000
vn 0.256443 0.557962 -0.789250
vn 0.671376 0.557962 -0.487783
vn -0.256443 0.557962 -0.789250
vn -0.671376 0.557962 -0.487783
vn -0.829866 0.557962 0.000000
vn -0.671376 0.557962 0.487784
vn -0.256443 0.557962 0.789250
vn 0.256443 0.557962 0.789250
vn 0.671376 0.557962 0.487783
vn 0.829866 0.557962 0.000000
vn 0.195836 0.773548 -0.602720
vn 0.512705 0.773548 -0.372501
vn -0.195836 0.773548 -0.602721
vn -0.512705 0.773548 -0.372502
vn -0.633738 0.773548 0.000000
vn -0.512705 0.773548 0.372502
vn -0.195836 0.773548 0.602721
vn 0.195836 0.773548 0.602721
vn 0.512705 0.773548 0.372502
vn 0.633738 0.773548 -0.000000
vn 0.123740 0.916326 -0.380834
vn 0.323957 0.916326 -0.235368
vn -0.123740 0.916326 -0.380834
vn -0.323956 0.916326 -0.235369
vn -0.400432 0.916326 0.000000
vn -0.323957 0.916326 0.235368
vn -0.123740 0.916326 0.380834
vn 0.123740 0.916326 0.380834
vn 0.323957 0.916326 0.235368
vn 0.400432 0.916326 -0.000000
vn -0.000000 -1.000000 0.000000
vn 0.000000 1.000000 -0.000000
vn 0.799909 0.121123 -0.587771
vn 0.304941 0.050448 -0.951034
vn 0.251473 0.330152 -0.909814
vn 0.724988 0.397764 -0.562296
vn -0.306874 -0.036912 -0.951034
vn -0.333823 0.246579 -0.909814
vn -0.801841 -0.107587 -0.587772
vn -0.807338 0.178967 -0.562296
vn -0.990902 -0.134582 0.000000
vn -0.988204 0.153142 0.000000
vn -0.801841 -0.107587 0.587772
vn -0.807337 0.178967 0.562296
vn -0.306873 -0.036912 0.951034
vn -0.333823 0.246579 0.909814
vn 0.304941 0.050448 0.951034
vn 0.251473 0.330152 0.909814
vn 0.799909 0.121123 0.587772
vn 0.724988 0.397764 0.562296
vn 0.988970 0.148119 0.000000
vn 0.905854 0.423590 0.000000
vn 0.532550 0.712899 -0.456251
vn 0.148338 0.658039 -0.738228
vn 0.174998 0.588609 -0.789250
vn 0.585765 0.647262 -0.487783
vn -0.326575 0.590227 -0.738228
vn -0.332738 0.516110 -0.789250
vn -0.710787 0.535366 -0.456250
vn -0.743505 0.457458 -0.487783
vn -0.857544 0.514412 0.000000
vn -0.900404 0.435055 0.000000
vn -0.710787 0.535367 0.456249
vn -0.743505 0.457458 0.487783
vn -0.326575 0.590228 0.738227
vn -0.332738 0.516110 0.789250
vn 0.148338 0.658039 0.738228
vn 0.174998 0.588609 0.789250
vn 0.532551 0.712900 0.456250
vn 0.585765 0.647261 0.487783
vn 0.679307 0.733855 -0.000000
vn 0.742664 0.669665 -0.000000
vn 0.084525 0.793462 -0.602721
vn 0.398213 0.838253 -0.372502
vn -0.303214 0.738098 -0.602721
vn -0.616901 0.693308 -0.372502
vn -0.736719 0.676199 -0.000000
vn -0.616901 0.693308 0.372502
vn -0.303214 0.738098 0.602721
vn 0.084525 0.793463 0.602721
vn 0.398213 0.838253 0.372502
vn 0.518031 0.855362 -0.000000
vn -0.007029 0.924617 -0.380834
vn 0.191177 0.952918 -0.235368
vn -0.252025 0.889634 -0.380833
vn -0.450230 0.861333 -0.235368
vn -0.525938 0.850523 -0.000000
vn -0.450230 0.861333 0.235368
vn -0.252025 0.889635 0.380833
vn -0.007028 0.924617 0.380833
vn 0.191177 0.952918 0.235369
vn 0.266885 0.963728 0.000000
vn -0.141354 0.989959 -0.000000
vn 0.141355 -0.989959 0.000001
vn 0.141354 -0.989959 0.000004
vn 0.141354 -0.989959 0.000005
vn 0.141354 -0.989959 0.000000
vn 0.141354 -0.989959 -0.000000
vn 0.141355 -0.989959 -0.000002
vn 0.141355 -0.989959 -0.000004
vn 0.141354 -0.989959 -0.000001
vn 0.141355 -0.989959 -0.000000
vn 0.141356 -0.989959 -0.000000
vn 0.707107 0.000000 -0.707107
vn 0.000000 0.000000 -1.000000
vn 0.000000 0.037651 -0.999291
vn 0.706605 0.037651 -0.706605
vn -0.707107 0.000000 -0.707107
vn -0.706605 0.037651 -0.706605
vn -1.000000 0.000000 0.000000
vn -0.999291 0.037651 -0.000000
vn -0.707107 0.000000 0.707107
vn -0.706605 0.037651 0.706605
vn 0.000000 0.000000 1.000000
vn -0.000000 0.037651 0.999291
vn 0.707107 0.000000 0.707107
vn 0.706605 0.037651 0.706605
vn 1.000000 0.000000 0.000000
vn 0.999291 0.037651 0.000000
vn 0.000000 -1.000000 0.000000
vn 0.000000 -1.000000 0.000000
vn 0.000000 -1.000000 0.000000
vn 0.000000 -1.000000 0.000000
vn 0.000000 -1.000000 0.000000
vn 0.000000 -1.000000 0.000000
vn 0.000000 -1.000000 0.000000
vn 0.000000 -1.000000 0.000000
vn 0.000000 -1.000000 0.000000
vn 0.225965 0.947565 -0.225965
vn 0.000000 0.947565 -0.319562
vn 0.000000 1.000000 0.000000
vn -0.225965 0.947565 -0.225965
vn -0.319562 0.947565 0.000000
vn -0.225965 0.947565 0.225965
vn -0.000000 0.947565 0.319562
vn 0.225965 0.947565 0.225965
vn 0.319562 0.947565 -0.000000
vn 0.468124 0.749480 -0.468124
vn 0.662027 0.749480 0.000000
vn 0.468124 0.749479 0.468124
vn -0.000000 0.749479 0.662028
vn -0.468124 0.749480 0.468124
vn -0.662028 0.749480 -0.000000
vn -0.468124 0.749480 -0.468124
vn 0.000000 0.749480 -0.662028
s 1
f 1/305/1 2/306/2 12/307/3 11/308/4
f 2/306/2 3/310/5 13/311/6 12/307/3
f 3/310/5 4/316/7 14/317/8 13/311/6
f 4/316/7 5/321/9 15/322/10 14/317/8
f 5/321/9 6/326/11 16/327/12 15/322/10
f 6/326/11 7/330/13 17/331/14 16/327/12
f 7/330/13 8/324/15 18/325/16 17/331/14
f 8/324/15 9/319/17 19/320/18 18/325/16
f 9/319/17 10/314/19 20/315/20 19/320/18
f 10/314/19 1/305/1 11/308/4 20/315/20
f 11/308/4 12/307/3 22/312/21 21/313/22
f 12/307/3 13/311/6 23/318/23 22/312/21
f 13/311/6 14/317/8 24/323/24 23/318/23
f 14/5/8 15/6/10 25/2/25 24/1/24
f 15/6/10 16/13/12 26/7/26 25/2/25
f 16/327/12 17/331/14 27/332/27 26/333/26
f 17/331/14 18/325/16 28/329/28 27/332/27
f 18/325/16 19/320/18 29/328/29 28/329/28
f 19/36/18 20/37/20 30/33/30 29/32/29
f 20/37/20 11/44/4 21/38/22 30/33/30
f 21/38/22 22/45/21 32/46/31 31/39/32
f 22/636/21 23/637/23 33/638/33 32/639/31
f 23/11/23 24/1/24 34/4/34 33/12/33
f 24/1/24 25/2/25 35/3/35 34/4/34
f 25/2/25 26/7/26 36/8/36 35/3/35
f 26/7/26 27/14/27 37/15/37 36/8/36
f 27/646/27 28/647/28 38/648/38 37/649/37
f 28/42/28 29/32/29 39/35/39 38/43/38
f 29/32/29 30/33/30 40/34/40 39/35/39
f 30/33/30 21/38/22 31/39/32 40/34/40
f 31/39/32 32/46/31 42/51/41 41/47/42
f 32/639/31 33/638/33 43/640/43 42/641/41
f 33/12/33 34/4/34 44/10/44 43/19/43
f 34/4/34 35/3/35 45/9/45 44/10/44
f 35/3/35 36/8/36 46/16/46 45/9/45
f 36/8/36 37/15/37 47/20/47 46/16/46
f 37/649/37 38/648/38 48/650/48 47/651/47
f 38/43/38 39/35/39 49/41/49 48/50/48
f 39/35/39 40/34/40 50/40/50 49/41/49
f 40/34/40 31/39/32 41/47/42 50/40/50
f 41/47/42 42/51/41 52/56/51 51/52/52
f 42/641/41 43/640/43 53/642/53 52/643/51
f 43/19/43 44/10/44 54/18/54 53/24/53
f 44/10/44 45/9/45 55/17/55 54/18/54
f 45/9/45 46/16/46 56/21/56 55/17/55
f 46/16/46 47/20/47 57/25/57 56/21/56
f 47/651/47 48/650/48 58/652/58 57/653/57
f 48/50/48 49/41/49 59/49/59 58/55/58
f 49/41/49 50/40/50 60/48/60 59/49/59
f 50/40/50 41/47/42 51/52/52 60/48/60
f 51/52/52 52/56/51 62/61/61 61/57/62
f 52/643/51 53/642/53 63/644/63 62/645/61
f 53/24/53 54/18/54 64/23/64 63/29/63
f 54/18/54 55/17/55 65/22/65 64/23/64
f 55/17/55 56/21/56 66/26/66 65/22/65
f 56/21/56 57/25/57 67/30/67 66/26/66
f 57/653/57 58/652/58 68/654/68 67/655/67
f 58/55/58 59/49/59 69/54/69 68/60/68
f 59/49/59 60/48/60 70/53/70 69/54/69
f 60/48/60 51/52/52 61/57/62 70/53/70
f 61/338/62 62/339/61 72/335/71 71/334/72
f 62/339/61 63/345/63 73/340/73 72/335/71
f 63/345/63 64/350/64 74/346/74 73/340/73
f 64/23/64 65/22/65 75/27/75 74/28/74
f 65/22/65 66/26/66 76/31/76 75/27/75
f 66/362/66 67/361/67 77/359/77 76/355/76
f 67/361/67 68/357/68 78/353/78 77/359/77
f 68/357/68 69/358/69 79/348/79 78/353/78
f 69/54/69 70/53/70 80/58/80 79/59/79
f 70/53/70 61/57/62 71/62/72 80/58/80
f 71/334/72 72/335/71 82/336/81 81/337/82
f 72/335/71 73/340/73 83/341/83 82/336/81
f 73/340/73 74/346/74 84/347/84 83/341/83
f 74/346/74 75/351/75 85/352/85 84/347/84
f 75/351/75 76/355/76 86/356/86 85/352/85
f 76/355/76 77/359/77 87/360/87 86/356/86
f 77/359/77 78/353/78 88/354/88 87/360/87
f 78/353/78 79/348/79 89/349/89 88/354/88
f 79/348/79 80/343/80 90/344/90 89/349/89
f 80/343/80 71/334/72 81/337/82 90/344/90
f 2/306/2 1/305/1 91/309/91
f 3/310/5 2/306/2 91/309/91
f 4/316/7 3/310/5 91/309/91
f 5/321/9 4/316/7 91/309/91
f 6/326/11 5/321/9 91/309/91
f 7/330/13 6/326/11 91/309/91
f 8/324/15 7/330/13 91/309/91
f 9/319/17 8/324/15 91/309/91
f 10/314/19 9/319/17 91/309/91
f 1/305/1 10/314/19 91/309/91
f 81/337/82 82/336/81 92/342/92
f 82/336/81 83/341/83 92/342/92
f 83/341/83 84/347/84 92/342/92
f 84/347/84 85/352/85 92/342/92
f 85/352/85 86/356/86 92/342/92
f 86/356/86 87/360/87 92/342/92
f 87/360/87 88/354/88 92/342/92
f 88/354/88 89/349/89 92/342/92
f 89/349/89 90/344/90 92/342/92
f 90/344/90 81/337/82 92/342/92
s 2
f 93/363/93 94/364/94 104/365/95 103/366/96
f 94/364/94 95/368/97 105/369/98 104/365/95
f 95/368/97 96/374/99 106/375/100 105/369/98
f 96/374/99 97/379/101 107/380/102 106/375/100
f 97/379/101 98/384/103 108/385/104 107/380/102
f 98/384/103 99/388/105 109/389/106 108/385/104
f 99/388/105 100/382/107 110/383/108 109/389/106
f 100/382/107 101/377/109 111/378/110 110/383/108
f 101/377/109 102/372/111 112/373/112 111/378/110
f 102/372/111 93/363/93 103/366/96 112/373/112
f 103/366/96 104/365/95 114/370/113 113/371/114
f 104/365/95 105/369/98 115/376/115 114/370/113
f 105/369/98 106/375/100 116/381/116 115/376/115
f 106/67/100 107/68/102 117/64/117 116/63/116
f 107/68/102 108/75/104 118/69/118 117/64/117
f 108/385/104 109/389/106 119/390/119 118/391/118
f 109/389/106 110/383/108 120/387/120 119/390/119
f 110/383/108 111/378/110 121/386/121 120/387/120
f 111/98/110 112/99/112 122/95/122 121/94/121
f 112/99/112 103/106/96 113/100/114 122/95/122
f 113/100/114 114/107/113 124/108/123 123/101/124
f 114/656/113 115/657/115 125/658/125 124/659/123
f 115/73/115 116/63/116 126/66/126 125/74/125
f 116/63/116 117/64/117 127/65/127 126/66/126
f 117/64/117 118/69/118 128/70/128 127/65/127
f 118/69/118 119/76/119 129/77/129 128/70/128
f 119/666/119 120/667/120 130/668/130 129/669/129
f 120/104/120 121/94/121 131/97/131 130/105/130
f 121/94/121 122/95/122 132/96/132 131/97/131
f 122/95/122 113/100/114 123/101/124 132/96/132
f 123/101/124 124/108/123 134/113/133 133/109/134
f 124/659/123 125/658/125 135/660/135 134/661/133
f 125/74/125 126/66/126 136/72/136 135/81/135
f 126/66/126 127/65/127 137/71/137 136/72/136
f 127/65/127 128/70/128 138/78/138 137/71/137
f 128/70/128 129/77/129 139/82/139 138/78/138
f 129/669/129 130/668/130 140/670/140 139/671/139
f 130/105/130 131/97/131 141/103/141 140/112/140
f 131/97/131 132/96/132 142/102/142 141/103/141
f 132/96/132 123/101/124 133/109/134 142/102/142
f 133/109/134 134/113/133 144/118/143 143/114/144
f 134/661/133 135/660/135 145/662/145 144/663/143
f 135/81/135 136/72/136 146/80/146 145/86/145
f 136/72/136 137/71/137 147/79/147 146/80/146
f 137/71/137 138/78/138 148/83/148 147/79/147
f 138/78/138 139/82/139 149/87/149 148/83/148
f 139/671/139 140/670/140 150/672/150 149/673/149
f 140/112/140 141/103/141 151/111/151 150/117/150
f 141/103/141 142/102/142 152/110/152 151/111/151
f 142/102/142 133/109/134 143/114/144 152/110/152
f 143/114/144 144/118/143 154/123/153 153/119/154
f 144/663/143 145/662/145 155/664/155 154/665/153
f 145/86/145 146/80/146 156/85/156 155/91/155
f 146/80/146 147/79/147 157/84/157 156/85/156
f 147/79/147 148/83/148 158/88/158 157/84/157
f 148/83/148 149/87/149 159/92/159 158/88/158
f 149/673/149 150/672/150 160/674/160 159/675/159
f 150/117/150 151/111/151 161/116/161 160/122/160
f 151/111/151 152/110/152 162/115/162 161/116/161
f 152/110/152 143/114/144 153/119/154 162/115/162
f 153/396/154 154/397/153 164/393/163 163/392/164
f 154/397/153 155/403/155 165/398/165 164/393/163
f 155/403/155 156/408/156 166/404/166 165/398/165
f 156/85/156 157/84/157 167/89/167 166/90/166
f 157/84/157 158/88/158 168/93/168 167/89/167
f 158/420/158 159/419/159 169/417/169 168/413/168
f 159/419/159 160/415/160 170/411/170 169/417/169
f 160/415/160 161/416/161 171/406/171 170/411/170
f 161/116/161 162/115/162 172/120/172 171/121/171
f 162/115/162 153/119/154 163/124/164 172/120/172
f 163/392/164 164/393/163 174/394/173 173/395/174
f 164/393/163 165/398/165 175/399/175 174/394/173
f 165/398/165 166/404/166 176/405/176 175/399/175
f 166/404/166 167/409/167 177/410/177 176/405/176
f 167/409/167 168/413/168 178/414/178 177/410/177
f 168/413/168 169/417/169 179/418/179 178/414/178
f 169/417/169 170/411/170 180/412/180 179/418/179
f 170/411/170 171/406/171 181/407/181 180/412/180
f 171/406/171 172/401/172 182/402/182 181/407/181
f 172/401/172 163/392/164 173/395/174 182/402/182
f 94/364/94 93/363/93 183/367/183
f 95/368/97 94/364/94 183/367/183
f 96/374/99 95/368/97 183/367/183
f 97/379/101 96/374/99 183/367/183
f 98/384/103 97/379/101 183/367/183
f 99/388/105 98/384/103 183/367/183
f 100/382/107 99/388/105 183/367/183
f 101/377/109 100/382/107 183/367/183
f 102/372/111 101/377/109 183/367/183
f 93/363/93 102/372/111 183/367/183
f 173/395/174 174/394/173 184/400/184
f 174/394/173 175/399/175 184/400/184
f 175/399/175 176/405/176 184/400/184
f 176/405/176 177/410/177 184/400/184
f 177/410/177 178/414/178 184/400/184
f 178/414/178 179/418/179 184/400/184
f 179/418/179 180/412/180 184/400/184
f 180/412/180 181/407/181 184/400/184
f 181/407/181 182/402/182 184/400/184
f 182/402/182 173/395/174 184/400/184
s 3
f 185/421/185 186/422/186 196/423/187 195/424/188
f 186/422/186 187/426/189 197/427/190 196/423/187
f 187/426/189 188/432/191 198/433/192 197/427/190
f 188/432/191 189/437/193 199/438/194 198/433/192
f 189/437/193 190/442/195 200/443/196 199/438/194
f 190/442/195 191/446/197 201/447/198 200/443/196
f 191/446/197 192/440/199 202/441/200 201/447/198
f 192/440/199 193/435/201 203/436/202 202/441/200
f 193/435/201 194/430/203 204/431/204 203/436/202
f 194/430/203 185/421/185 195/424/188 204/431/204
f 195/424/188 196/423/187 206/428/205 205/429/206
f 196/423/187 197/427/190 207/434/207 206/428/205
f 197/427/190 198/433/192 208/439/208 207/434/207
f 198/129/192 199/130/194 209/126/209 208/125/208
f 199/130/194 200/137/196 210/131/210 209/126/209
f 200/443/196 201/447/198 211/448/211 210/449/210
f 201/447/198 202/441/200 212/445/212 211/448/211
f 202/441/200 203/436/202 213/444/213 212/445/212
f 203/160/202 204/161/204 214/157/214 213/156/213
f 204/161/204 195/168/188 205/162/206 214/157/214
f 205/162/206 206/169/205 216/170/215 215/163/216
f 206/676/205 207/677/207 217/678/217 216/679/215
f 207/135/207 208/125/208 218/128/218 217/136/217
f 208/125/208 209/126/209 219/127/219 218/128/218
f 209/126/209 210/131/210 220/132/220 219/127/219
f 210/131/210 211/138/211 221/139/221 220/132/220
f 211/686/211 212/687/212 222/688/222 221/689/221
f 212/166/212 213/156/213 223/159/223 222/167/222
f 213/156/213 214/157/214 224/158/224 223/159/223
f 214/157/214 205/162/206 215/163/216 224/158/224
f 215/163/216 216/170/215 226/175/225 225/171/226
f 216/679/215 217/678/217 227/680/227 226/681/225
f 217/136/217 218/128/218 228/134/228 227/143/227
f 218/128/218 219/127/219 229/133/229 228/134/228
f 219/127/219 220/132/220 230/140/230 229/133/229
f 220/132/220 221/139/221 231/144/231 230/140/230
f 221/689/221 222/688/222 232/690/232 231/691/231
f 222/167/222 223/159/223 233/165/233 232/174/232
f 223/159/223 224/158/224 234/164/234 233/165/233
f 224/158/224 215/163/216 225/171/226 234/164/234
f 225/171/226 226/175/225 236/180/235 235/176/236
f 226/681/225 227/680/227 237/682/237 236/683/235
f 227/143/227 228/134/228 238/142/238 237/148/237
f 228/134/228 229/133/229 239/141/239 238/142/238
f 229/133/229 230/140/230 240/145/240 239/141/239
f 230/140/230 231/144/231 241/149/241 240/145/240
f 231/691/231 232/690/232 242/692/242 241/693/241
f 232/174/232 233/165/233 243/173/243 242/179/242
f 233/165/233 234/164/234 244/172/244 243/173/243
f 234/164/234 225/171/226 235/176/236 244/172/244
f 235/176/236 236/180/235 246/185/245 245/181/246
f 236/683/235 237/682/237 247/684/247 246/685/245
f 237/148/237 238/142/238 248/147/248 247/153/247
f 238/142/238 239/141/239 249/146/249 248/147/248
f 239/141/239 240/145/240 250/150/250 249/146/249
f 240/145/240 241/149/241 251/154/251 250/150/250
f 241/693/241 242/692/242 252/694/252 251/695/251
f 242/179/242 243/173/243 253/178/253 252/184/252
f 243/173/243 244/172/244 254/177/254 253/178/253
f 244/172/244 235/176/236 245/181/246 254/177/254
f 245/454/246 246/455/245 256/451/255 255/450/256
f 246/455/245 247/461/247 257/456/257 256/451/255
f 247/461/247 248/466/248 258/462/258 257/456/257
f 248/147/248 249/146/249 259/151/259 258/152/258
f 249/146/249 250/150/250 260/155/260 259/151/259
f 250/478/250 251/477/251 261/475/261 260/471/260
f 251/477/251 252/473/252 262/469/262 261/475/261
f 252/473/252 253/474/253 263/464/263 262/469/262
f 253/178/253 254/177/254 264/182/264 263/183/263
f 254/177/254 245/181/246 255/186/256 264/182/264
f 255/450/256 256/451/255 266/452/265 265/453/266
f 256/451/255 257/456/257 267/457/267 266/452/265
f 257/456/257 258/462/258 268/463/268 267/457/267
f 258/462/258 259/467/259 269/468/269 268/463/268
f 259/467/259 260/471/260 270/472/270 269/468/269
f 260/471/260 261/475/261 271/476/271 270/472/270
f 261/475/261 262/469/262 272/470/272 271/476/271
f 262/469/262 263/464/263 273/465/273 272/470/272
f 263/464/263 264/459/264 274/460/274 273/465/273
f 264/459/264 255/450/256 265/453/266 274/460/274
f 186/422/186 185/421/185 275/425/275
f 187/426/189 186/422/186 275/425/275
f 188/432/191 187/426/189 275/425/275
f 189/437/193 188/432/191 275/425/275
f 190/442/195 189/437/193 275/425/275
f 191/446/197 190/442/195 275/425/275
f 192/440/199 191/446/197 275/425/275
f 193/435/201 192/440/199 275/425/275
f 194/430/203 193/435/201 275/425/275
f 185/421/185 194/430/203 275/425/275
f 265/453/266 266/452/265 276/458/276
f 266/452/265 267/457/267 276/458/276
f 267/457/267 268/463/268 276/458/276
f 268/463/268 269/468/269 276/458/276
f 269/468/269 270/472/270 276/458/276
f 270/472/270 271/476/271 276/458/276
f 271/476/271 272/470/272 276/458/276
f 272/470/272 273/465/273 276/458/276
f 273/465/273 274/460/274 276/458/276
f 274/460/274 265/453/266 276/458/276
s 4
f 277/479/277 278/480/278 288/481/279 287/482/280
f 278/480/278 279/484/281 289/485/282 288/481/279
f 279/484/281 280/490/283 290/491/284 289/485/282
f 280/490/283 281/495/285 291/496/286 290/491/284
f 281/495/285 282/500/287 292/501/288 291/496/286
f 282/500/287 283/504/289 293/505/290 292/501/288
f 283/504/289 284/498/291 294/499/292 293/505/290
f 284/498/291 285/493/293 295/494/294 294/499/292
f 285/493/293 286/488/295 296/489/296 295/494/294
f 286/488/295 277/479/277 287/482/280 296/489/296
f 287/482/280 288/481/279 298/486/297 297/487/298
f 288/481/279 289/485/282 299/492/299 298/486/297
f 289/485/282 290/491/284 300/497/300 299/492/299
f 290/191/284 291/192/286 301/188/301 300/187/300
f 291/192/286 292/199/288 302/193/302 301/188/301
f 292/501/288 293/505/290 303/506/303 302/507/302
f 293/505/290 294/499/292 304/503/304 303/506/303
f 294/499/292 295/494/294 305/502/305 304/503/304
f 295/222/294 296/223/296 306/219/306 305/218/305
f 296/223/296 287/230/280 297/224/298 306/219/306
f 297/224/298 298/231/297 308/232/307 307/225/308
f 298/696/297 299/697/299 309/698/309 308/699/307
f 299/197/299 300/187/300 310/190/310 309/198/309
f 300/187/300 301/188/301 311/189/311 310/190/310
f 301/188/301 302/193/302 312/194/312 311/189/311
f 302/193/302 303/200/303 313/201/313 312/194/312
f 303/706/303 304/707/304 314/708/314 313/709/313
f 304/228/304 305/218/305 315/221/315 314/229/314
f 305/218/305 306/219/306 316/220/316 315/221/315
f 306/219/306 297/224/298 307/225/308 316/220/316
f 307/225/308 308/232/307 318/237/317 317/233/318
f 308/699/307 309/698/309 319/700/319 318/701/317
f 309/198/309 310/190/310 320/196/320 319/205/319
f 310/190/310 311/189/311 321/195/321 320/196/320
f 311/189/311 312/194/312 322/202/322 321/195/321
f 312/194/312 313/201/313 323/206/323 322/202/322
f 313/709/313 314/708/314 324/710/324 323/711/323
f 314/229/314 315/221/315 325/227/325 324/236/324
f 315/221/315 316/220/316 326/226/326 325/227/325
f 316/220/316 307/225/308 317/233/318 326/226/326
f 317/233/318 318/237/317 328/242/327 327/238/328
f 318/701/317 319/700/319 329/702/329 328/703/327
f 319/205/319 320/196/320 330/204/330 329/210/329
f 320/196/320 321/195/321 331/203/331 330/204/330
f 321/195/321 322/202/322 332/207/332 331/203/331
f 322/202/322 323/206/323 333/211/333 332/207/332
f 323/711/323 324/710/324 334/712/334 333/713/333
f 324/236/324 325/227/325 335/235/335 334/241/334
f 325/227/325 326/226/326 336/234/336 335/235/335
f 326/226/326 317/233/318 327/238/328 336/234/336
f 327/238/328 328/242/327 338/247/337 337/243/338
f 328/703/327 329/702/329 339/704/339 338/705/337
f 329/210/329 330/204/330 340/209/340 339/215/339
f 330/204/330 331/203/331 341/208/341 340/209/340
f 331/203/331 332/207/332 342/212/342 341/208/341
f 332/207/332 333/211/333 343/216/343 342/212/342
f 333/713/333 334/712/334 344/714/344 343/715/343
f 334/241/334 335/235/335 345/240/345 344/246/344
f 335/235/335 336/234/336 346/239/346 345/240/345
f 336/234/336 327/238/328 337/243/338 346/239/346
f 337/512/338 338/513/337 348/509/347 347/508/348
f 338/513/337 339/519/339 349/514/349 348/509/347
f 339/519/339 340/524/340 350/520/350 349/514/349
f 340/209/340 341/208/341 351/213/351 350/214/350
f 341/208/341 342/212/342 352/217/352 351/213/351
f 342/536/342 343/535/343 353/533/353 352/529/352
f 343/535/343 344/531/344 354/527/354 353/533/353
f 344/531/344 345/532/345 355/522/355 354/527/354
f 345/240/345 346/239/346 356/244/356 355/245/355
f 346/239/346 337/243/338 347/248/348 356/244/356
f 347/508/348 348/509/347 358/510/357 357/511/358
f 348/509/347 349/514/349 359/515/359 358/510/357
f 349/514/349 350/520/350 360/521/360 359/515/359
f 350/520/350 351/525/351 361/526/361 360/521/360
f 351/525/351 352/529/352 362/530/362 361/526/361
f 352/529/352 353/533/353 363/534/363 362/530/362
f 353/533/353 354/527/354 364/528/364 363/534/363
f 354/527/354 355/522/355 365/523/365 364/528/364
f 355/522/355 356/517/356 366/518/366 365/523/365
f 356/517/356 347/508/348 357/511/358 366/518/366
f 278/480/278 277/479/277 367/483/367
f 279/484/281 278/480/278 367/483/367
f 280/490/283 279/484/281 367/483/367
f 281/495/285 280/490/283 367/483/367
f 282/500/287 281/495/285 367/483/367
f 283/504/289 282/500/287 367/483/367
f 284/498/291 283/504/289 367/483/367
f 285/493/293 284/498/291 367/483/367
f 286/488/295 285/493/293 367/483/367
f 277/479/277 286/488/295 367/483/367
f 357/511/358 358/510/357 368/516/368
f 358/510/357 359/515/359 368/516/368
f 359/515/359 360/521/360 368/516/368
f 360/521/360 361/526/361 368/516/368
f 361/526/361 362/530/362 368/516/368
f 362/530/362 363/534/363 368/516/368
f 363/534/363 364/528/364 368/516/368
f 364/528/364 365/523/365 368/516/368
f 365/523/365 366/518/366 368/516/368
f 366/518/366 357/511/358 368/516/368
s 5
f 420/263/369 421/267/370 422/268/371 423/264/372
f 421/716/370 424/717/373 425/718/374 422/719/371
f 424/255/373 426/249/375 427/252/376 425/256/374
f 426/249/375 428/250/377 429/251/378 427/252/376
f 428/250/377 430/253/379 431/254/380 429/251/378
f 430/253/379 432/257/381 433/258/382 431/254/380
f 432/720/381 434/721/383 435/722/384 433/723/382
f 434/265/383 436/259/385 437/262/386 435/266/384
f 436/259/385 438/260/387 439/261/388 437/262/386
f 438/260/387 420/263/369 423/264/372 439/261/388
f 379/548/389 380/549/390 390/542/391 389/541/392
f 380/724/390 381/725/393 391/726/394 390/727/391
f 381/277/393 382/269/395 392/272/396 391/278/394
f 382/269/395 383/270/397 393/271/398 392/272/396
f 383/270/397 384/273/399 394/274/400 393/271/398
f 384/273/399 385/279/401 395/280/402 394/274/400
f 385/728/401 386/729/403 396/730/404 395/731/402
f 386/573/403 387/565/405 397/559/406 396/566/404
f 387/565/405 388/558/407 398/551/408 397/559/406
f 388/558/407 379/548/389 389/541/392 398/551/408
f 389/541/392 390/542/391 400/538/409 399/537/410
f 390/542/391 391/550/394 401/543/411 400/538/409
f 391/278/394 392/272/396 402/276/412 401/284/411
f 392/272/396 393/271/398 403/275/413 402/276/412
f 393/271/398 394/274/400 404/281/414 403/275/413
f 394/274/400 395/280/402 405/285/415 404/281/414
f 395/574/402 396/566/404 406/560/416 405/568/415
f 396/566/404 397/559/406 407/554/417 406/560/416
f 397/559/406 398/551/408 408/546/418 407/554/417
f 398/551/408 389/541/392 399/537/410 408/546/418
f 399/537/410 400/538/409 410/539/419 409/540/420
f 400/538/409 401/543/411 411/544/421 410/539/419
f 401/543/411 402/552/412 412/553/422 411/544/421
f 402/276/412 403/275/413 413/282/423 412/283/422
f 403/275/413 404/281/414 414/286/424 413/282/423
f 404/576/414 405/568/415 415/569/425 414/575/424
f 405/568/415 406/560/416 416/561/426 415/569/425
f 406/560/416 407/554/417 417/555/427 416/561/426
f 407/554/417 408/546/418 418/547/428 417/555/427
f 408/546/418 399/537/410 409/540/420 418/547/428
f 409/540/420 410/539/419 419/545/429
f 410/539/419 411/544/421 419/545/429
f 411/544/421 412/553/422 419/545/429
f 412/553/422 413/567/423 419/545/429
f 413/567/423 414/575/424 419/545/429
f 414/575/424 415/569/425 419/545/429
f 415/569/425 416/561/426 419/545/429
f 416/561/426 417/555/427 419/545/429
f 417/555/427 418/547/428 419/545/429
f 418/547/428 409/540/420 419/545/429
f 369/584/430 370/585/431 421/586/370 420/587/369
f 380/549/390 379/548/389 423/556/372 422/557/371
f 370/585/431 371/588/432 424/589/373 421/586/370
f 381/563/393 380/549/390 422/557/371 425/564/374
f 371/588/432 372/592/433 426/593/375 424/589/373
f 382/571/395 381/563/393 425/564/374 427/572/376
f 372/592/433 373/596/434 428/597/377 426/593/375
f 383/578/397 382/571/395 427/572/376 429/579/378
f 373/596/434 374/600/435 430/601/379 428/597/377
f 384/582/399 383/578/397 429/579/378 431/583/380
f 374/600/435 375/602/436 432/603/381 430/601/379
f 385/580/401 384/582/399 431/583/380 433/581/382
f 375/602/436 376/598/437 434/599/383 432/603/381
f 386/573/403 385/580/401 433/581/382 435/577/384
f 376/598/437 377/594/438 436/595/385 434/599/383
f 387/565/405 386/573/403 435/577/384 437/570/386
f 377/594/438 378/590/439 438/591/387 436/595/385
f 388/558/407 387/565/405 437/570/386 439/562/388
f 378/590/439 369/584/430 420/587/369 438/591/387
f 379/548/389 388/558/407 439/562/388 423/556/372
s 6
f 440/732/440 441/733/441 465/734/442 458/735/443
f 441/733/441 442/736/444 464/737/445 465/734/442
f 442/287/444 443/288/446 463/289/447 464/290/445
f 443/288/446 444/291/448 462/292/449 463/289/447
f 444/738/448 445/739/450 461/740/451 462/741/449
f 445/739/450 446/742/452 460/743/453 461/740/451
f 446/296/452 447/297/454 459/298/455 460/299/453
f 447/297/454 440/300/440 458/301/443 459/298/455
s 7
f 441/604/456 440/605/457 456/606/458
f 442/608/459 441/604/456 456/606/458
f 443/610/460 442/608/459 456/606/458
f 444/612/461 443/610/460 456/606/458
f 445/611/462 444/612/461 456/606/458
f 446/609/463 445/611/462 456/606/458
f 447/607/464 446/609/463 456/606/458
f 440/605/457 447/607/464 456/606/458
s 6
f 448/613/465 449/614/466 457/615/467
f 449/614/466 450/618/468 457/615/467
f 450/618/468 451/624/469 457/615/467
f 451/624/469 452/629/470 457/615/467
f 452/629/470 453/630/471 457/615/467
f 453/630/471 454/625/472 457/615/467
f 454/625/472 455/619/473 457/615/467
f 455/619/473 448/613/465 457/615/467
f 459/298/455 458/301/443 466/304/474 467/302/475
f 460/299/453 459/298/455 467/302/475 468/303/476
f 461/633/451 460/634/453 468/628/476 469/632/477
f 462/635/449 461/633/451 469/632/477 470/631/478
f 463/289/447 462/292/449 470/295/478 471/293/479
f 464/290/445 463/289/447 471/293/479 472/294/480
f 465/621/442 464/626/445 472/622/480 473/617/481
f 458/620/443 465/621/442 473/617/481 466/616/474
f 467/623/475 466/616/474 448/613/465 455/619/473
f 468/628/476 467/623/475 455/619/473 454/625/472
f 469/632/477 468/628/476 454/625/472 453/630/471
f 470/631/478 469/632/477 453/630/471 452/629/470
f 471/627/479 470/631/478 452/629/470 451/624/469
f 472/622/480 471/627/479 451/624/469 450/618/468
f 473/617/481 472/622/480 450/618/468 449/614/466
f 466/616/474 473/617/481 449/614/466 448/613/465
