# This file uses centimeters as units for non-parametric coordinates.

v 3.943033 -0.000000 -1.281168
v 3.354141 -0.000000 -2.436925
v 2.436927 -0.000000 -3.354140
v 1.281169 -0.000000 -3.943032
v 0.000000 -0.000000 -4.145947
v -1.281168 -0.000000 -3.943032
v -2.436926 -0.000000 -3.354140
v -3.354140 -0.000000 -2.436925
v -3.943032 -0.000000 -1.281168
v -4.145947 -0.000000 0.000001
v -3.943032 -0.000000 1.281169
v -3.354140 -0.000000 2.436926
v -2.436925 -0.000000 3.354140
v -1.281168 -0.000000 3.943032
v 0.000000 -0.000000 4.145947
v 1.281168 -0.000000 3.943032
v 2.436926 -0.000000 3.354140
v 3.354140 -0.000000 2.436927
v 3.943032 -0.000000 1.281168
v 4.145947 -0.000000 0.000001
v 0.500809 24.495279 -0.162722
v 0.426013 24.495279 -0.309516
v 0.309517 24.495279 -0.426013
v 0.162723 24.495279 -0.500809
v 0.000000 24.495279 -0.526583
v -0.162722 24.495279 -0.500809
v -0.309516 24.495279 -0.426013
v -0.426013 24.495279 -0.309516
v -0.500809 24.495279 -0.162722
v -0.526583 24.495279 0.000000
v -0.500809 24.495279 0.162723
v -0.426013 24.495279 0.309517
v -0.309516 24.495279 0.426013
v -0.162722 24.495279 0.500809
v 0.000000 24.495279 0.526583
v 0.162723 24.495279 0.500809
v 0.309516 24.495279 0.426013
v 0.426013 24.495279 0.309517
v 0.500809 24.495279 0.162723
v 0.526583 24.495279 0.000000
v 2.272462 0.000000 -0.738367
v 2.389408 0.000000 0.000001
v 2.272461 0.000000 0.738367
v 1.933069 0.000000 1.404457
v 1.404457 0.000000 1.933069
v 0.738367 0.000000 2.272461
v 0.000000 0.000000 2.389408
v -0.738366 0.000000 2.272462
v -1.404457 0.000000 1.933069
v -1.933069 0.000000 1.404457
v -2.272461 0.000000 0.738368
v -2.389408 0.000000 0.000001
v -2.272461 0.000000 -0.738366
v -1.933069 0.000000 -1.404457
v -1.404457 0.000000 -1.933069
v -0.738367 0.000000 -2.272461
v 0.000000 0.000000 -2.389408
v 0.738368 0.000000 -2.272461
v 1.404458 0.000000 -1.933069
v 1.933070 0.000000 -1.404457
v 1.303663 0.718561 -0.423585
v 1.370753 0.718561 0.000000
v 1.303663 0.718561 0.423586
v 1.108961 0.718561 0.805708
v 0.805708 0.718561 1.108961
v 0.423586 0.718561 1.303663
v 0.000000 0.718561 1.370753
v -0.423585 0.718561 1.303663
v -0.805707 0.718561 1.108961
v -1.108961 0.718561 0.805708
v -1.303663 0.718561 0.423586
v -1.370753 0.718561 0.000000
v -1.303663 0.718561 -0.423585
v -1.108961 0.718561 -0.805707
v -0.805708 0.718561 -1.108961
v -0.423585 0.718561 -1.303663
v 0.000000 0.718561 -1.370753
v 0.423586 0.718561 -1.303663
v 0.805708 0.718561 -1.108961
v 1.108962 0.718561 -0.805708
v 0.900997 2.242949 -0.292751
v 0.947366 2.242949 0.000000
v 0.900997 2.242949 0.292752
v 0.766433 2.242949 0.556846
v 0.556846 2.242949 0.766433
v 0.292752 2.242949 0.900997
v 0.000000 2.242949 0.947366
v -0.292751 2.242949 0.900997
v -0.556846 2.242949 0.766433
v -0.766433 2.242949 0.556846
v -0.900997 2.242949 0.292752
v -0.947366 2.242949 0.000000
v -0.900997 2.242949 -0.292751
v -0.766433 2.242949 -0.556846
v -0.556846 2.242949 -0.766433
v -0.292751 2.242949 -0.900997
v 0.000000 2.242949 -0.947366
v 0.292752 2.242949 -0.900997
v 0.556847 2.242949 -0.766433
v 0.766433 2.242949 -0.556846
vt -0.000000 -0.000536
vt 0.050781 -0.000536
vt 0.101562 -0.000536
vt 0.148437 -0.000536
vt 0.199219 -0.000536
vt 0.250000 -0.000536
vt 0.300781 -0.000536
vt 0.351562 -0.000536
vt 0.398437 -0.000536
vt 0.449219 -0.000536
vt 0.500000 -0.000536
vt 0.550781 -0.000536
vt 0.601562 -0.000536
vt 0.648437 -0.000536
vt 0.699219 -0.000536
vt 0.750000 -0.000536
vt 0.800781 -0.000536
vt 0.847656 -0.000536
vt 0.898438 -0.000536
vt 0.949219 -0.000536
vt 1.000000 -0.000536
vt 0.000000 0.992915
vt 0.050781 0.992915
vt 0.101562 0.992915
vt 0.148438 0.992915
vt 0.199219 0.992915
vt 0.250000 0.992915
vt 0.300781 0.992915
vt 0.351562 0.992915
vt 0.398437 0.992915
vt 0.449219 0.992915
vt 0.500000 0.992915
vt 0.550781 0.992915
vt 0.601562 0.992915
vt 0.648437 0.992915
vt 0.699219 0.992915
vt 0.750000 0.992915
vt 0.800781 0.992915
vt 0.847656 0.992915
vt 0.898437 0.992915
vt 0.949219 0.992915
vt 1.000000 0.992915
vt 1.000000 0.844433
vt 0.000000 0.844433
vt 0.949219 0.844433
vt 0.898437 0.844433
vt 0.847656 0.844433
vt 0.800781 0.844433
vt 0.750000 0.844433
vt 0.699219 0.844433
vt 0.648437 0.844433
vt 0.601562 0.844433
vt 0.550781 0.844433
vt 0.500000 0.844433
vt 0.449219 0.844433
vt 0.398437 0.844433
vt 0.351562 0.844433
vt 0.300781 0.844433
vt 0.250000 0.844433
vt 0.199219 0.844433
vt 0.148437 0.844433
vt 0.101562 0.844433
vt 0.050781 0.844433
vt 1.000000 0.909968
vt 0.000000 0.909968
vt 0.949219 0.909968
vt 0.898437 0.909968
vt 0.847656 0.909968
vt 0.800781 0.909968
vt 0.750000 0.909968
vt 0.699219 0.909968
vt 0.648437 0.909968
vt 0.601562 0.909968
vt 0.550781 0.909968
vt 0.500000 0.909968
vt 0.449219 0.909968
vt 0.398437 0.909968
vt 0.351562 0.909968
vt 0.300781 0.909968
vt 0.250000 0.909968
vt 0.199219 0.909968
vt 0.148437 0.909968
vt 0.101562 0.909968
vt 0.050781 0.909968
vt 1.000000 0.956282
vt 0.000000 0.956282
vt 0.949219 0.956282
vt 0.898437 0.956282
vt 0.847656 0.956282
vt 0.800781 0.956282
vt 0.750000 0.956282
vt 0.699219 0.956282
vt 0.648437 0.956282
vt 0.601562 0.956282
vt 0.550781 0.956282
vt 0.500000 0.956282
vt 0.449219 0.956282
vt 0.398437 0.956282
vt 0.351562 0.956282
vt 0.300781 0.956282
vt 0.250000 0.956282
vt 0.199219 0.956282
vt 0.148438 0.956282
vt 0.101562 0.956282
vt 0.050781 0.956282
vn 0.000000 1.000000 -0.000000
vn 0.000000 1.000000 -0.000000
vn 0.122897 0.988394 -0.089290
vn 0.144474 0.988394 -0.046943
vn 0.000000 1.000000 -0.000000
vn 0.089290 0.988394 -0.122897
vn 0.000000 1.000000 -0.000000
vn 0.046943 0.988394 -0.144474
vn 0.000000 1.000000 -0.000000
vn -0.000000 0.988394 -0.151909
vn -0.000000 1.000000 -0.000000
vn -0.046943 0.988394 -0.144474
vn -0.000000 1.000000 -0.000000
vn -0.089290 0.988394 -0.122897
vn -0.000000 1.000000 -0.000000
vn -0.122897 0.988394 -0.089290
vn -0.000000 1.000000 -0.000000
vn -0.144474 0.988394 -0.046943
vn -0.000000 1.000000 0.000000
vn -0.151909 0.988394 0.000000
vn -0.000000 1.000000 0.000000
vn -0.144474 0.988394 0.046943
vn -0.000000 1.000000 0.000000
vn -0.122897 0.988394 0.089290
vn -0.000000 1.000000 0.000000
vn -0.089290 0.988394 0.122897
vn -0.000000 1.000000 0.000000
vn -0.046943 0.988394 0.144474
vn 0.000000 1.000000 0.000000
vn 0.000000 0.988394 0.151909
vn 0.000000 1.000000 0.000000
vn 0.046943 0.988394 0.144474
vn 0.000000 1.000000 0.000000
vn 0.089290 0.988394 0.122897
vn 0.000000 1.000000 0.000000
vn 0.122897 0.988394 0.089290
vn 0.000000 1.000000 0.000000
vn 0.144474 0.988394 0.046943
vn 0.000000 1.000000 0.000000
vn 0.151909 0.988394 0.000000
vn 0.742157 0.625342 -0.241143
vn 0.780351 0.625342 0.000001
vn 0.742157 0.625342 0.241144
vn 0.631317 0.625342 0.458680
vn 0.458680 0.625342 0.631317
vn 0.241143 0.625342 0.742157
vn 0.000000 0.625342 0.780351
vn -0.241143 0.625342 0.742157
vn -0.458679 0.625342 0.631317
vn -0.631317 0.625342 0.458680
vn -0.742157 0.625342 0.241144
vn -0.780351 0.625342 -0.000000
vn -0.742157 0.625342 -0.241144
vn -0.631317 0.625342 -0.458679
vn -0.458680 0.625341 -0.631317
vn -0.241144 0.625342 -0.742157
vn -0.000000 0.625342 -0.780351
vn 0.241143 0.625342 -0.742157
vn 0.458680 0.625342 -0.631317
vn 0.631317 0.625342 -0.458680
vn 0.950105 0.044687 -0.308712
vn 0.999001 0.044687 0.000001
vn 0.950105 0.044687 0.308712
vn 0.808208 0.044687 0.587199
vn 0.587200 0.044687 0.808208
vn 0.308712 0.044687 0.950105
vn 0.000000 0.044687 0.999001
vn -0.308712 0.044687 0.950105
vn -0.587199 0.044687 0.808208
vn -0.808208 0.044687 0.587199
vn -0.950105 0.044687 0.308712
vn -0.999001 0.044687 -0.000000
vn -0.950105 0.044687 -0.308712
vn -0.808209 0.044687 -0.587199
vn -0.587199 0.044687 -0.808208
vn -0.308712 0.044687 -0.950105
vn -0.000000 0.044687 -0.999001
vn 0.308712 0.044687 -0.950105
vn 0.587200 0.044687 -0.808208
vn 0.808208 0.044687 -0.587199
vn 0.950885 0.018906 -0.308965
vn 0.999821 0.018906 0.000001
vn 0.950885 0.018906 0.308966
vn 0.808871 0.018906 0.587682
vn 0.587682 0.018906 0.808871
vn 0.308966 0.018906 0.950885
vn 0.000000 0.018906 0.999821
vn -0.308965 0.018906 0.950885
vn -0.587681 0.018906 0.808872
vn -0.808871 0.018906 0.587682
vn -0.950885 0.018906 0.308966
vn -0.999821 0.018906 -0.000000
vn -0.950885 0.018906 -0.308966
vn -0.808872 0.018906 -0.587681
vn -0.587681 0.018906 -0.808872
vn -0.308966 0.018906 -0.950885
vn -0.000000 0.018906 -0.999821
vn 0.308965 0.018906 -0.950885
vn 0.587682 0.018906 -0.808871
vn 0.808872 0.018906 -0.587681
s 1
f 1/1/1 2/2/2 60/63/3 41/44/4
f 2/2/2 3/3/5 59/62/6 60/63/3
f 3/3/5 4/4/7 58/61/8 59/62/6
f 4/4/7 5/5/9 57/60/10 58/61/8
f 5/5/9 6/6/11 56/59/12 57/60/10
f 6/6/11 7/7/13 55/58/14 56/59/12
f 7/7/13 8/8/15 54/57/16 55/58/14
f 8/8/15 9/9/17 53/56/18 54/57/16
f 9/9/17 10/10/19 52/55/20 53/56/18
f 10/10/19 11/11/21 51/54/22 52/55/20
f 11/11/21 12/12/23 50/53/24 51/54/22
f 12/12/23 13/13/25 49/52/26 50/53/24
f 13/13/25 14/14/27 48/51/28 49/52/26
f 14/14/27 15/15/29 47/50/30 48/51/28
f 15/15/29 16/16/31 46/49/32 47/50/30
f 16/16/31 17/17/33 45/48/34 46/49/32
f 17/17/33 18/18/35 44/47/36 45/48/34
f 18/18/35 19/19/37 43/46/38 44/47/36
f 19/19/37 20/20/39 42/45/40 43/46/38
f 20/20/39 1/21/1 41/43/4 42/45/40
f 42/45/40 41/43/4 61/64/41 62/66/42
f 43/46/38 42/45/40 62/66/42 63/67/43
f 44/47/36 43/46/38 63/67/43 64/68/44
f 45/48/34 44/47/36 64/68/44 65/69/45
f 46/49/32 45/48/34 65/69/45 66/70/46
f 47/50/30 46/49/32 66/70/46 67/71/47
f 48/51/28 47/50/30 67/71/47 68/72/48
f 49/52/26 48/51/28 68/72/48 69/73/49
f 50/53/24 49/52/26 69/73/49 70/74/50
f 51/54/22 50/53/24 70/74/50 71/75/51
f 52/55/20 51/54/22 71/75/51 72/76/52
f 53/56/18 52/55/20 72/76/52 73/77/53
f 54/57/16 53/56/18 73/77/53 74/78/54
f 55/58/14 54/57/16 74/78/54 75/79/55
f 56/59/12 55/58/14 75/79/55 76/80/56
f 57/60/10 56/59/12 76/80/56 77/81/57
f 58/61/8 57/60/10 77/81/57 78/82/58
f 59/62/6 58/61/8 78/82/58 79/83/59
f 60/63/3 59/62/6 79/83/59 80/84/60
f 41/44/4 60/63/3 80/84/60 61/65/41
f 62/66/42 61/64/41 81/85/61 82/87/62
f 63/67/43 62/66/42 82/87/62 83/88/63
f 64/68/44 63/67/43 83/88/63 84/89/64
f 65/69/45 64/68/44 84/89/64 85/90/65
f 66/70/46 65/69/45 85/90/65 86/91/66
f 67/71/47 66/70/46 86/91/66 87/92/67
f 68/72/48 67/71/47 87/92/67 88/93/68
f 69/73/49 68/72/48 88/93/68 89/94/69
f 70/74/50 69/73/49 89/94/69 90/95/70
f 71/75/51 70/74/50 90/95/70 91/96/71
f 72/76/52 71/75/51 91/96/71 92/97/72
f 73/77/53 72/76/52 92/97/72 93/98/73
f 74/78/54 73/77/53 93/98/73 94/99/74
f 75/79/55 74/78/54 94/99/74 95/100/75
f 76/80/56 75/79/55 95/100/75 96/101/76
f 77/81/57 76/80/56 96/101/76 97/102/77
f 78/82/58 77/81/57 97/102/77 98/103/78
f 79/83/59 78/82/58 98/103/78 99/104/79
f 80/84/60 79/83/59 99/104/79 100/105/80
f 61/65/41 80/84/60 100/105/80 81/86/61
f 82/87/62 81/85/61 21/42/81 40/41/82
f 83/88/63 82/87/62 40/41/82 39/40/83
f 84/89/64 83/88/63 39/40/83 38/39/84
f 85/90/65 84/89/64 38/39/84 37/38/85
f 86/91/66 85/90/65 37/38/85 36/37/86
f 87/92/67 86/91/66 36/37/86 35/36/87
f 88/93/68 87/92/67 35/36/87 34/35/88
f 89/94/69 88/93/68 34/35/88 33/34/89
f 90/95/70 89/94/69 33/34/89 32/33/90
f 91/96/71 90/95/70 32/33/90 31/32/91
f 92/97/72 91/96/71 31/32/91 30/31/92
f 93/98/73 92/97/72 30/31/92 29/30/93
f 94/99/74 93/98/73 29/30/93 28/29/94
f 95/100/75 94/99/74 28/29/94 27/28/95
f 96/101/76 95/100/75 27/28/95 26/27/96
f 97/102/77 96/101/76 26/27/96 25/26/97
f 98/103/78 97/102/77 25/26/97 24/25/98
f 99/104/79 98/103/78 24/25/98 23/24/99
f 100/105/80 99/104/79 23/24/99 22/23/100
f 81/86/61 100/105/80 22/23/100 21/22/81
