# This file uses centimeters as units for non-parametric coordinates.

v 2.973837 0.000000 -2.622542
v 2.973837 -0.892860 -1.729682
v 2.973837 -0.000000 -0.836823
v 2.973837 0.892860 -1.729682
v -2.973837 0.000000 -2.622542
v -2.973837 -0.892860 -1.729682
v -2.973837 -0.000000 -0.836823
v -2.973837 0.892860 -1.729682
v 3.922279 0.000000 -1.729682
v -3.922279 -0.000000 -1.729682
v 2.973837 0.000000 -0.905335
v 2.973837 -0.892860 -0.012475
v 2.973837 -0.000000 0.880385
v 2.973837 0.892860 -0.012475
v -2.973837 0.000000 -0.905335
v -2.973837 -0.892860 -0.012475
v -2.973837 -0.000000 0.880385
v -2.973837 0.892860 -0.012475
v 3.922279 0.000000 -0.012475
v -3.922279 -0.000000 -0.012475
v 2.973837 0.000000 0.836823
v 2.973837 -0.892860 1.729682
v 2.973837 -0.000000 2.622542
v 2.973837 0.892860 1.729682
v -2.973837 0.000000 0.836823
v -2.973837 -0.892860 1.729682
v -2.973837 -0.000000 2.622542
v -2.973837 0.892860 1.729682
v 3.922279 0.000000 1.729682
v -3.922279 -0.000000 1.729682
vt 0.500000 0.000000
vt 0.343750 0.156250
vt 0.500000 0.312500
vt 0.656250 0.156250
vt 0.375000 0.312500
vt 0.437500 0.312500
vt 0.500000 0.312500
vt 0.562500 0.312500
vt 0.625000 0.312500
vt 0.375000 0.687500
vt 0.437500 0.687500
vt 0.500000 0.687500
vt 0.562500 0.687500
vt 0.625000 0.687500
vt 0.500000 0.687500
vt 0.343750 0.843750
vt 0.500000 1.000000
vt 0.656250 0.843750
vt 0.500000 0.156250
vt 0.500000 0.843750
vt 0.375000 0.312500
vt 0.437500 0.312500
vt 0.437500 0.687500
vt 0.375000 0.687500
vt 0.500000 0.312500
vt 0.500000 0.687500
vt 0.562500 0.312500
vt 0.562500 0.687500
vt 0.625000 0.312500
vt 0.625000 0.687500
vt 0.343750 0.156250
vt 0.500000 0.000000
vt 0.500000 0.156250
vt 0.500000 0.312500
vt 0.656250 0.156250
vt 0.500000 1.000000
vt 0.343750 0.843750
vt 0.500000 0.843750
vt 0.500000 0.687500
vt 0.656250 0.843750
vt 0.375000 0.312500
vt 0.437500 0.312500
vt 0.437500 0.687500
vt 0.375000 0.687500
vt 0.500000 0.312500
vt 0.500000 0.687500
vt 0.562500 0.312500
vt 0.562500 0.687500
vt 0.625000 0.312500
vt 0.625000 0.687500
vt 0.343750 0.156250
vt 0.500000 0.000000
vt 0.500000 0.156250
vt 0.500000 0.312500
vt 0.656250 0.156250
vt 0.500000 1.000000
vt 0.343750 0.843750
vt 0.500000 0.843750
vt 0.500000 0.687500
vt 0.656250 0.843750
vn 0.000000 0.000000 -1.000000
vn 0.000000 -1.000000 0.000000
vn 0.000000 -1.000000 0.000000
vn 0.000000 0.000000 -1.000000
vn 0.000000 -0.000000 1.000000
vn 0.000000 -0.000000 1.000000
vn 0.000000 1.000000 0.000000
vn 0.000000 1.000000 0.000000
vn 0.685450 -0.728120 -0.000000
vn 0.685450 0.000000 -0.728120
vn 1.000000 0.000000 0.000000
vn 0.685450 0.000000 0.728120
vn 0.685450 0.728120 0.000000
vn -0.685450 0.000000 -0.728120
vn -0.685450 -0.728120 -0.000000
vn -1.000000 -0.000000 -0.000000
vn -0.685450 0.000000 0.728120
vn -0.685450 0.728120 0.000000
vn 0.000000 0.000000 -1.000000
vn 0.000000 -1.000000 -0.000000
vn 0.000000 -1.000000 -0.000000
vn 0.000000 0.000000 -1.000000
vn 0.000000 0.000000 1.000000
vn 0.000000 0.000000 1.000000
vn 0.000000 1.000000 0.000000
vn 0.000000 1.000000 0.000000
vn 0.685450 -0.728120 -0.000000
vn 0.685450 0.000000 -0.728120
vn 1.000000 0.000000 -0.000000
vn 0.685450 0.000000 0.728120
vn 0.685450 0.728120 0.000000
vn -0.685450 0.000000 -0.728120
vn -0.685450 -0.728120 -0.000000
vn -1.000000 0.000000 -0.000000
vn -0.685450 0.000000 0.728120
vn -0.685450 0.728120 0.000000
vn 0.000000 0.000000 -1.000000
vn 0.000000 -1.000000 0.000000
vn 0.000000 -1.000000 0.000000
vn 0.000000 0.000000 -1.000000
vn 0.000000 -0.000000 1.000000
vn 0.000000 -0.000000 1.000000
vn 0.000000 1.000000 -0.000000
vn 0.000000 1.000000 -0.000000
vn 0.685450 -0.728120 -0.000000
vn 0.685450 0.000000 -0.728120
vn 1.000000 0.000000 -0.000000
vn 0.685450 -0.000000 0.728120
vn 0.685450 0.728120 0.000000
vn -0.685450 0.000000 -0.728120
vn -0.685450 -0.728120 -0.000000
vn -1.000000 0.000000 0.000000
vn -0.685450 -0.000000 0.728120
vn -0.685450 0.728120 0.000000
s 1
f 1/5/1 2/6/2 6/11/3 5/10/4
f 2/6/2 3/7/5 7/12/6 6/11/3
f 3/7/5 4/8/7 8/13/8 7/12/6
f 4/8/7 1/9/1 5/14/4 8/13/8
s 2
f 2/2/9 1/1/10 9/19/11
f 3/3/12 2/2/9 9/19/11
f 4/4/13 3/3/12 9/19/11
f 1/1/10 4/4/13 9/19/11
s 3
f 5/17/14 6/16/15 10/20/16
f 6/16/15 7/15/17 10/20/16
f 7/15/17 8/18/18 10/20/16
f 8/18/18 5/17/14 10/20/16
s 4
f 11/21/19 12/22/20 16/23/21 15/24/22
f 12/22/20 13/25/23 17/26/24 16/23/21
f 13/25/23 14/27/25 18/28/26 17/26/24
f 14/27/25 11/29/19 15/30/22 18/28/26
s 5
f 12/31/27 11/32/28 19/33/29
f 13/34/30 12/31/27 19/33/29
f 14/35/31 13/34/30 19/33/29
f 11/32/28 14/35/31 19/33/29
s 6
f 15/36/32 16/37/33 20/38/34
f 16/37/33 17/39/35 20/38/34
f 17/39/35 18/40/36 20/38/34
f 18/40/36 15/36/32 20/38/34
s 7
f 21/41/37 22/42/38 26/43/39 25/44/40
f 22/42/38 23/45/41 27/46/42 26/43/39
f 23/45/41 24/47/43 28/48/44 27/46/42
f 24/47/43 21/49/37 25/50/40 28/48/44
s 8
f 22/51/45 21/52/46 29/53/47
f 23/54/48 22/51/45 29/53/47
f 24/55/49 23/54/48 29/53/47
f 21/52/46 24/55/49 29/53/47
s 9
f 25/56/50 26/57/51 30/58/52
f 26/57/51 27/59/53 30/58/52
f 27/59/53 28/60/54 30/58/52
f 28/60/54 25/56/50 30/58/52
